ply
format ascii 1.0
comment VCGLIB generated
element vertex 339
property float x
property float y
property float z
element face 674
property list uchar int vertex_indices
end_header
22.07498 0 -27.07098 
22.98485 140.4333 -27.21265 
27.145 0 -27.5025 
27.145 140.4333 -27.5025 
32.21503 0 -27.07098 
27.145 0 2.497499 
17.15081 0 -25.78882 
19.99288 140.99 -26.63748 
22.06943 140.5706 -27.07003 
32.21503 140.6123 -27.07098 
37.13919 0 -25.78882 
31.05479 140.4333 -27.24664 
17.14226 141.8201 -25.7858 
17.99439 141.54 -26.07288 
15.16236 142.5822 -25.00553 
12.51415 0 -23.69292 
34.15107 141.0151 -26.67295 
36.05427 141.5428 -26.14905 
37.13919 141.9047 -25.78882 
41.77585 0 -23.69292 
13.26132 143.4706 -24.09655 
8.298401 0 -20.84357 
10.65124 144.9705 -22.56155 
12.50506 143.8701 -23.68784 
41.77585 144.0033 -23.69292 
45.9916 0 -20.84357 
40.7892 143.4762 -24.22021 
39.00193 142.6356 -25.05996 
8.29084 146.6529 -20.83747 
8.920587 146.1701 -21.33254 
6.623131 148.0668 -19.38521 
4.624832 0 -17.32274 
43.50908 145.0485 -22.64643 
45.12928 146.1778 -21.51428 
45.9916 146.8461 -20.84357 
49.66517 0 -17.32274 
5.09599 149.5616 -17.84559 
1.599127 0 -13.23172 
3.17805 151.7825 -15.54648 
4.619897 150.0734 -17.31713 
49.66517 150.3467 -17.32274 
52.69088 0 -13.23172 
48.95184 149.5702 -18.10497 
47.5265 148.1676 -19.51601 
1.597088 154.0026 -13.22841 
1.896591 153.5482 -13.7049 
0.418937 155.9877 -11.13032 
-0.6916699 0 -8.688195 
50.97441 151.9276 -15.72774 
52.14861 153.5565 -14.08018 
52.69088 154.3934 -13.23172 
54.98167 0 -8.688195 
-0.5863726 158.0164 -8.946754 
-2.181656 0 -3.822879 
-1.535006 160.3882 -6.303478 
-0.6914662 158.2527 -8.688703 
54.98167 158.8395 -8.688195 
56.47166 0 -3.822879 
54.62938 158.0239 -9.527839 
53.72801 156.1871 -11.40731 
-2.827968 0 1.224263 
-2.827991 28.72731 1.224808 
-2.75086 27.5025 0 
-2.75086 32.4975 8.673617e-15 
-2.181656 162.4611 -3.822879 
57.04086 27.5025 1.301043e-15 
57.11797 0 1.224263 
57.04086 32.4975 1.301043e-15 
55.7289 160.838 -6.61078 
56.47166 163.4425 -3.822879 
56.32411 162.8478 -4.472413 
-2.612012 0 6.308033 
57.118 28.72731 1.224808 
57.145 30 2.497499 
57.03709 27.45773 5.039771 
56.90201 0 6.308033 
27.145 0 32.4975 
24.60082 0 32.38942 
29.68918 0 32.38942 
43.94424 0 27.35279 
39.50204 0 29.83435 
34.70434 0 31.52949 
53.93277 0 16.00361 
51.26492 0 20.33649 
47.90316 0 24.15618 
55.83 0 11.28218 
0.3572251 0 16.00361 
-1.540001 0 11.28218 
10.34576 0 27.35279 
6.386835 0 24.15618 
3.025087 0 20.33649 
19.58566 0 31.52949 
14.78796 0 29.83435 
-1.540001 21.21532 11.28218 
-2.612012 26.18946 6.308033 
-2.423476 24.92998 7.567523 
56.17699 22.44066 10.05684 
56.90201 26.18946 6.308033 
0.3572251 16.49389 16.00361 
-1.141322 20.00581 12.49169 
54.48186 17.64296 14.85454 
55.83 21.21532 11.28218 
3.025087 12.161 20.33649 
0.9545774 15.36915 17.12835 
52.00029 13.20076 19.29674 
53.93277 16.49389 16.00361 
6.386835 8.341317 24.15618 
3.803928 11.1534 21.3441 
48.80368 9.241835 23.25566 
51.26492 12.161 20.33649 
10.34576 5.144711 27.35279 
7.324759 7.479831 25.01767 
44.984 5.880086 26.61741 
47.90316 8.341317 24.15618 
14.78796 2.663145 29.83435 
11.41578 4.454126 28.04337 
40.65111 3.212224 29.28527 
43.94424 5.144711 27.35279 
19.58566 0.9680116 31.52949 
15.95931 2.163329 30.33417 
35.92968 1.314998 31.1825 
39.50204 2.663145 29.83435 
22.70372 0.3305708 32.16693 
20.82462 0.6733428 31.82416 
30.95554 0.2429869 32.25451 
34.70434 0.9680116 31.52949 
25.87177 0.02703101 32.47047 
29.68918 0.1080753 32.38942 
25.87177 0.02703101 55 
30.95554 0.2429869 55 
20.82462 0.6733428 55 
27.145 30 55 
35.92968 1.314998 55 
15.95931 2.163329 55 
40.65111 3.212224 55 
11.41578 4.454126 55 
44.984 5.880086 55 
7.324759 7.479831 55 
48.80368 9.241835 55 
3.803928 11.1534 55 
52.00029 13.20076 55 
0.9545774 15.36915 55 
54.48186 17.64296 55 
-1.141322 20.00581 55 
56.17699 22.44066 55 
-2.423476 24.92998 55 
57.03693 27.45582 55 
-2.854999 30 55 
-2.854999 30 2.497499 
57.145 30 55 
-2.854999 30 0 
57.145 30 0 
-2.827991 31.27269 1.224808 
57.118 31.27269 1.224808 
-2.612012 33.81054 6.308033 
57.03709 32.54227 5.039771 
57.03693 32.54418 55 
-2.423476 35.07002 55 
-2.423476 35.07002 7.567523 
0.9545774 44.63085 55 
-1.141322 39.99419 55 
11.41578 55.54588 55 
7.324759 52.52017 55 
3.803928 48.8466 55 
25.87177 59.97297 55 
20.82462 59.32666 55 
15.95931 57.83667 55 
40.65111 56.78777 55 
35.92968 58.685 55 
30.95554 59.75701 55 
52.00029 46.79924 55 
48.80368 50.75816 55 
44.984 54.11992 55 
56.17699 37.55934 55 
54.48186 42.35704 55 
-2.827968 200 1.224263 
-2.75086 164.9572 0 
-2.612012 200 6.308033 
-2.554143 163.9787 -1.740526 
-2.286445 162.8554 -3.315418 
56.8103 165.0659 -1.971326 
57.04086 166.558 1.301043e-15 
57.11797 200 1.224263 
56.90201 33.81054 6.308033 
56.90201 200 6.308033 
56.17699 37.55934 10.05684 
-1.540001 200 11.28218 
-1.540001 38.78468 11.28218 
-1.141322 39.99419 12.49169 
55.83 38.78468 11.28218 
55.83 200 11.28218 
54.48186 42.35704 14.85454 
0.3572251 200 16.00361 
0.3572251 43.50611 16.00361 
0.9545774 44.63085 17.12835 
53.93277 43.50611 16.00361 
53.93277 200 16.00361 
52.00029 46.79924 19.29674 
3.025087 200 20.33649 
3.025087 47.839 20.33649 
3.803928 48.8466 21.3441 
51.26492 47.839 20.33649 
51.26492 200 20.33649 
48.80368 50.75816 23.25566 
6.386835 200 24.15618 
6.386835 51.65868 24.15618 
7.324759 52.52017 25.01767 
47.90316 51.65868 24.15618 
47.90316 200 24.15618 
44.984 54.11992 26.61741 
10.34576 200 27.35279 
10.34576 54.85529 27.35279 
11.41578 55.54588 28.04337 
43.94424 54.85529 27.35279 
43.94424 200 27.35279 
40.65111 56.78777 29.28527 
14.78796 200 29.83435 
14.78796 57.33686 29.83435 
15.95931 57.83667 30.33417 
39.50204 57.33686 29.83435 
39.50204 200 29.83435 
35.92968 58.685 31.1825 
19.58566 200 31.52949 
19.58566 59.03199 31.52949 
20.81717 59.32505 31.82255 
34.70434 59.03199 31.52949 
34.70434 200 31.52949 
30.95554 59.75701 32.25451 
22.70372 59.66943 32.16693 
25.87048 59.97292 32.47041 
24.60082 59.89193 32.38942 
24.60082 200 32.38942 
29.68918 59.89193 32.38942 
29.68918 200 32.38942 
27.78176 59.99324 32.49074 
17.99439 141.54 -55 
22.98485 140.4333 -55 
31.05479 140.4333 -55 
5.09599 191.3049 -55 
36.04524 141.54 -55 
13.26132 143.4706 -55 
40.77832 143.4706 -55 
8.920587 146.1701 -55 
45.11905 146.1701 -55 
5.09599 149.5616 -55 
48.94365 149.5616 -55 
1.896591 153.5482 -55 
52.14304 153.5482 -55 
-0.5863726 158.0164 -55 
1.896591 187.3183 -55 
-2.282096 178.0279 -55 
-0.5863726 182.8502 -55 
54.62601 158.0164 -55 
-2.282096 162.8386 -55 
56.32173 162.8386 -55 
-3.142221 167.8774 -55 
57.18186 167.8774 -55 
8.920587 194.6964 -55 
13.26132 197.3959 -55 
-3.142221 167.8774 2.081668e-14 
-3.142221 172.9891 0 
-2.75086 175.9094 8.673617e-15 
57.18186 167.8774 0 
57.04086 174.3085 0 
-3.142221 172.9891 -55 
57.18186 172.9891 -55 
57.18186 172.9891 0 
-2.555726 176.8806 -1.729421 
56.32173 178.0279 -55 
56.32173 178.0279 -4.482352 
56.47008 177.4306 -3.830187 
56.80972 175.8038 -1.975165 
56.47166 200 -3.822879 
-2.282096 178.0279 -3.337396 
-2.179613 178.4129 -3.832352 
-1.53261 180.4851 -6.311282 
-0.6916699 182.6133 -8.688195 
55.72783 180.0317 -6.614126 
54.62601 182.8502 -55 
54.62601 182.8502 -9.535545 
54.9828 182.0243 -8.685388 
-2.181656 200 -3.822879 
54.98167 200 -8.688195 
-0.6916699 200 -8.688195 
-0.5879381 182.8467 -8.94296 
0.4125686 184.8671 -11.11783 
1.599127 186.8671 -13.23172 
53.72876 184.678 -11.40588 
52.14304 187.3183 -55 
52.14304 187.3183 -14.08857 
52.69507 186.4664 -13.22491 
52.69088 200 -13.23172 
1.599127 200 -13.23172 
1.892849 187.3127 -13.69907 
3.181916 189.089 -15.55162 
4.624832 190.7986 -17.32274 
50.97512 188.938 -15.72681 
48.94365 191.3049 -55 
48.94365 191.3049 -18.11364 
49.67252 190.5115 -17.31439 
49.66517 200 -17.32274 
4.624832 200 -17.32274 
5.089961 191.2986 -17.83905 
6.618096 192.7951 -19.38049 
8.298401 194.2196 -20.84357 
47.52815 192.6973 -19.51448 
45.11905 194.6964 -55 
45.11905 194.6964 -21.52194 
46.00163 194.0123 -20.83548 
45.9916 200 -20.84357 
8.298401 200 -20.84357 
8.912536 194.6904 -21.32638 
10.6555 195.8987 -22.56436 
12.51415 197.0014 -23.69292 
43.50665 195.8196 -22.64801 
40.77832 197.3959 -55 
40.77832 197.3959 -24.22576 
41.78732 196.8568 -23.68651 
17.99439 199.3265 -55 
41.77585 200 -23.69292 
12.51415 200 -23.69292 
13.25249 197.3914 -24.09193 
15.15964 198.2832 -25.00434 
17.15081 199.0494 -25.78882 
37.14972 198.9581 -25.7851 
39.00455 198.2298 -25.05883 
36.04524 199.3265 -26.15186 
36.04524 199.3265 -55 
37.13919 200 -25.78882 
17.15081 200 -25.78882 
17.99439 199.3265 -26.07288 
22.98485 200.4333 -55 
33.50739 200 -26.82007 
31.05479 200.4333 -55 
20.53225 200 -26.76462 
33.50739 200 0 
31.05479 200.4333 0 
20.53225 200 0 
22.98485 200.4333 2.081668e-14 
3 0 1 2 
3 1 3 2 
3 3 4 2 
3 4 5 2 
3 5 0 2 
3 6 7 0 
3 7 8 0 
3 8 1 0 
3 5 6 0 
3 9 10 4 
3 3 11 4 
3 11 9 4 
3 10 5 4 
3 12 13 6 
3 13 7 6 
3 14 12 6 
3 15 14 6 
3 5 15 6 
3 9 16 10 
3 16 17 10 
3 17 18 10 
3 18 19 10 
3 19 5 10 
3 20 14 15 
3 21 22 15 
3 22 23 15 
3 23 20 15 
3 5 21 15 
3 24 25 19 
3 26 24 19 
3 18 27 19 
3 27 26 19 
3 25 5 19 
3 28 29 21 
3 29 22 21 
3 30 28 21 
3 31 30 21 
3 5 31 21 
3 24 32 25 
3 32 33 25 
3 33 34 25 
3 34 35 25 
3 35 5 25 
3 36 30 31 
3 37 38 31 
3 38 39 31 
3 39 36 31 
3 5 37 31 
3 40 41 35 
3 42 40 35 
3 34 43 35 
3 43 42 35 
3 41 5 35 
3 44 45 37 
3 45 38 37 
3 46 44 37 
3 47 46 37 
3 5 47 37 
3 40 48 41 
3 48 49 41 
3 49 50 41 
3 50 51 41 
3 51 5 41 
3 52 46 47 
3 53 54 47 
3 54 55 47 
3 55 52 47 
3 5 53 47 
3 56 57 51 
3 58 56 51 
3 50 59 51 
3 59 58 51 
3 57 5 51 
3 60 61 53 
3 61 62 53 
3 62 63 53 
3 63 64 53 
3 64 54 53 
3 5 60 53 
3 65 66 57 
3 67 65 57 
3 56 68 57 
3 69 67 57 
3 70 69 57 
3 68 70 57 
3 66 5 57 
3 71 61 60 
3 5 71 60 
3 72 73 66 
3 73 74 66 
3 74 75 66 
3 65 72 66 
3 75 5 66 
3 76 77 5 
3 78 76 5 
3 79 80 5 
3 80 81 5 
3 81 78 5 
3 82 83 5 
3 83 84 5 
3 84 79 5 
3 75 85 5 
3 85 82 5 
3 86 87 5 
3 87 71 5 
3 88 89 5 
3 89 90 5 
3 90 86 5 
3 77 91 5 
3 91 92 5 
3 92 88 5 
3 87 93 71 
3 94 61 71 
3 95 94 71 
3 93 95 71 
3 96 85 75 
3 74 97 75 
3 97 96 75 
3 86 98 87 
3 98 99 87 
3 99 93 87 
3 100 82 85 
3 96 101 85 
3 101 100 85 
3 90 102 86 
3 102 103 86 
3 103 98 86 
3 104 83 82 
3 100 105 82 
3 105 104 82 
3 89 106 90 
3 106 107 90 
3 107 102 90 
3 108 84 83 
3 104 109 83 
3 109 108 83 
3 88 110 89 
3 110 111 89 
3 111 106 89 
3 112 79 84 
3 108 113 84 
3 113 112 84 
3 92 114 88 
3 114 115 88 
3 115 110 88 
3 116 80 79 
3 112 117 79 
3 117 116 79 
3 91 118 92 
3 118 119 92 
3 119 114 92 
3 120 81 80 
3 116 121 80 
3 121 120 80 
3 77 122 91 
3 122 123 91 
3 123 118 91 
3 124 78 81 
3 120 125 81 
3 125 124 81 
3 76 126 77 
3 126 122 77 
3 124 127 78 
3 127 76 78 
3 128 126 76 
3 129 128 76 
3 127 129 76 
3 128 122 126 
3 130 122 128 
3 129 131 128 
3 131 130 128 
3 124 129 127 
3 132 129 124 
3 125 132 124 
3 132 131 129 
3 130 123 122 
3 130 118 123 
3 133 118 130 
3 131 133 130 
3 133 119 118 
3 120 132 125 
3 134 132 120 
3 121 134 120 
3 134 131 132 
3 133 114 119 
3 135 114 133 
3 131 135 133 
3 135 115 114 
3 116 134 121 
3 136 134 116 
3 117 136 116 
3 136 131 134 
3 135 110 115 
3 137 110 135 
3 131 137 135 
3 137 111 110 
3 112 136 117 
3 138 136 112 
3 113 138 112 
3 138 131 136 
3 137 106 111 
3 139 106 137 
3 131 139 137 
3 139 107 106 
3 108 138 113 
3 140 138 108 
3 109 140 108 
3 140 131 138 
3 139 102 107 
3 141 102 139 
3 131 141 139 
3 141 103 102 
3 104 140 109 
3 142 140 104 
3 105 142 104 
3 142 131 140 
3 141 98 103 
3 143 98 141 
3 131 143 141 
3 143 99 98 
3 100 142 105 
3 144 142 100 
3 101 144 100 
3 144 131 142 
3 143 93 99 
3 145 93 143 
3 131 145 143 
3 145 95 93 
3 96 144 101 
3 146 144 96 
3 97 146 96 
3 146 131 144 
3 145 94 95 
3 147 94 145 
3 131 147 145 
3 148 61 94 
3 147 148 94 
3 74 146 97 
3 74 149 146 
3 149 131 146 
3 73 149 74 
3 150 63 62 
3 61 150 62 
3 67 151 65 
3 151 72 65 
3 148 150 61 
3 151 73 72 
3 152 63 150 
3 148 152 150 
3 67 153 151 
3 153 73 151 
3 154 152 148 
3 147 154 148 
3 153 155 73 
3 156 149 73 
3 155 156 73 
3 157 158 147 
3 158 154 147 
3 131 157 147 
3 149 156 131 
3 159 160 131 
3 160 157 131 
3 161 162 131 
3 162 163 131 
3 163 159 131 
3 164 165 131 
3 165 166 131 
3 166 161 131 
3 167 168 131 
3 168 169 131 
3 169 164 131 
3 170 171 131 
3 171 172 131 
3 172 167 131 
3 156 173 131 
3 173 174 131 
3 174 170 131 
3 175 176 152 
3 177 175 152 
3 154 177 152 
3 176 178 152 
3 178 179 152 
3 179 63 152 
3 69 180 153 
3 180 181 153 
3 181 182 153 
3 182 155 153 
3 67 69 153 
3 179 64 63 
3 182 183 155 
3 183 156 155 
3 183 173 156 
3 158 177 154 
3 182 184 183 
3 184 185 183 
3 185 173 183 
3 186 177 158 
3 187 186 158 
3 157 187 158 
3 160 188 157 
3 188 187 157 
3 184 189 185 
3 189 173 185 
3 189 174 173 
3 188 186 187 
3 190 191 189 
3 184 190 189 
3 191 174 189 
3 192 186 188 
3 193 192 188 
3 160 193 188 
3 159 194 160 
3 194 193 160 
3 190 195 191 
3 195 174 191 
3 195 170 174 
3 194 192 193 
3 190 196 195 
3 196 197 195 
3 197 170 195 
3 198 192 194 
3 199 198 194 
3 159 199 194 
3 163 200 159 
3 200 199 159 
3 196 201 197 
3 201 170 197 
3 201 171 170 
3 200 198 199 
3 202 203 201 
3 196 202 201 
3 203 171 201 
3 204 198 200 
3 205 204 200 
3 163 205 200 
3 162 206 163 
3 206 205 163 
3 202 207 203 
3 207 171 203 
3 207 172 171 
3 206 204 205 
3 202 208 207 
3 208 209 207 
3 209 172 207 
3 210 204 206 
3 211 210 206 
3 162 211 206 
3 161 212 162 
3 212 211 162 
3 208 213 209 
3 213 172 209 
3 213 167 172 
3 212 210 211 
3 214 215 213 
3 208 214 213 
3 215 167 213 
3 216 210 212 
3 217 216 212 
3 161 217 212 
3 166 218 161 
3 218 217 161 
3 214 219 215 
3 219 167 215 
3 219 168 167 
3 218 216 217 
3 214 220 219 
3 220 221 219 
3 221 168 219 
3 222 216 218 
3 223 222 218 
3 166 223 218 
3 165 224 166 
3 224 223 166 
3 220 225 221 
3 225 168 221 
3 225 169 168 
3 224 222 223 
3 226 227 225 
3 220 226 225 
3 227 169 225 
3 228 222 224 
3 165 228 224 
3 164 229 165 
3 229 230 165 
3 230 228 165 
3 230 231 228 
3 231 222 228 
3 226 232 227 
3 232 169 227 
3 232 164 169 
3 229 231 230 
3 233 234 232 
3 226 233 232 
3 234 164 232 
3 234 233 229 
3 233 231 229 
3 164 234 229 
3 1 235 236 
3 3 1 236 
3 237 3 236 
3 238 237 236 
3 235 238 236 
3 9 11 237 
3 239 9 237 
3 11 3 237 
3 238 239 237 
3 8 235 1 
3 7 235 8 
3 239 16 9 
3 13 235 7 
3 239 17 16 
3 13 240 235 
3 240 238 235 
3 241 18 239 
3 18 17 239 
3 238 241 239 
3 12 240 13 
3 14 240 12 
3 241 27 18 
3 20 240 14 
3 241 26 27 
3 20 242 240 
3 242 238 240 
3 24 26 241 
3 243 24 241 
3 238 243 241 
3 23 242 20 
3 22 242 23 
3 243 32 24 
3 29 242 22 
3 243 33 32 
3 29 244 242 
3 244 238 242 
3 245 34 243 
3 34 33 243 
3 238 245 243 
3 28 244 29 
3 30 244 28 
3 245 43 34 
3 36 244 30 
3 245 42 43 
3 36 246 244 
3 246 238 244 
3 40 42 245 
3 247 40 245 
3 238 247 245 
3 39 246 36 
3 38 246 39 
3 247 48 40 
3 45 246 38 
3 247 49 48 
3 45 248 246 
3 249 238 246 
3 248 250 246 
3 250 251 246 
3 251 249 246 
3 252 50 247 
3 50 49 247 
3 238 252 247 
3 44 248 45 
3 46 248 44 
3 252 59 50 
3 52 248 46 
3 252 58 59 
3 52 253 248 
3 253 250 248 
3 56 58 252 
3 254 56 252 
3 238 254 252 
3 55 253 52 
3 54 253 55 
3 254 68 56 
3 64 253 54 
3 254 70 68 
3 179 253 64 
3 179 255 253 
3 255 250 253 
3 256 69 254 
3 69 70 254 
3 238 257 254 
3 257 258 254 
3 258 256 254 
3 178 255 179 
3 256 180 69 
3 259 255 178 
3 176 259 178 
3 260 259 176 
3 261 260 176 
3 175 261 176 
3 256 181 180 
3 256 262 181 
3 262 263 181 
3 263 182 181 
3 260 264 255 
3 259 260 255 
3 264 250 255 
3 265 262 256 
3 258 265 256 
3 265 266 262 
3 266 263 262 
3 267 250 264 
3 261 267 264 
3 260 261 264 
3 268 269 265 
3 269 270 265 
3 270 271 265 
3 271 266 265 
3 258 268 265 
3 271 263 266 
3 271 182 263 
3 270 272 271 
3 272 182 271 
3 175 267 261 
3 175 273 267 
3 273 250 267 
3 269 272 270 
3 273 274 250 
3 274 275 250 
3 275 276 250 
3 276 251 250 
3 277 269 268 
3 278 279 268 
3 279 280 268 
3 280 277 268 
3 258 278 268 
3 277 272 269 
3 175 274 273 
3 281 275 274 
3 175 281 274 
3 282 272 277 
3 280 282 277 
3 281 276 275 
3 279 282 280 
3 283 284 276 
3 281 283 276 
3 284 251 276 
3 283 285 284 
3 285 251 284 
3 286 249 251 
3 285 286 251 
3 287 279 278 
3 288 289 278 
3 289 290 278 
3 290 287 278 
3 258 288 278 
3 287 282 279 
3 290 291 287 
3 291 282 287 
3 283 286 285 
3 289 291 290 
3 292 293 286 
3 283 292 286 
3 293 249 286 
3 292 294 293 
3 294 249 293 
3 294 295 249 
3 295 238 249 
3 296 289 288 
3 297 298 288 
3 298 299 288 
3 299 296 288 
3 258 297 288 
3 296 291 289 
3 300 291 296 
3 299 300 296 
3 292 295 294 
3 298 300 299 
3 292 301 295 
3 301 302 295 
3 302 238 295 
3 301 303 302 
3 303 238 302 
3 304 257 238 
3 303 304 238 
3 305 298 297 
3 306 307 297 
3 307 308 297 
3 308 305 297 
3 258 306 297 
3 305 300 298 
3 308 309 305 
3 309 300 305 
3 301 304 303 
3 307 309 308 
3 310 311 304 
3 301 310 304 
3 311 257 304 
3 310 312 311 
3 312 257 311 
3 312 313 257 
3 313 258 257 
3 314 307 306 
3 315 316 306 
3 316 317 306 
3 317 314 306 
3 318 315 306 
3 258 318 306 
3 314 309 307 
3 319 309 314 
3 317 319 314 
3 310 313 312 
3 316 319 317 
3 310 320 313 
3 320 321 313 
3 321 258 313 
3 320 322 321 
3 322 258 321 
3 323 318 258 
3 322 323 258 
3 324 325 315 
3 325 316 315 
3 326 324 315 
3 327 326 315 
3 318 327 315 
3 325 319 316 
3 324 328 325 
3 328 319 325 
3 320 323 322 
3 326 328 324 
3 329 330 323 
3 320 329 323 
3 330 318 323 
3 330 331 318 
3 331 327 318 
3 332 326 327 
3 333 332 327 
3 331 333 327 
3 332 328 326 
3 329 334 330 
3 334 331 330 
3 335 328 332 
3 336 335 332 
3 333 336 332 
3 329 337 334 
3 337 338 334 
3 338 331 334 
3 320 337 329 
3 335 319 328 
3 310 337 320 
3 335 309 319 
3 301 337 310 
3 335 300 309 
3 292 337 301 
3 335 291 300 
3 283 337 292 
3 335 282 291 
3 281 337 283 
3 335 272 282 
3 175 337 281 
3 335 182 272 
3 208 335 337 
3 214 208 337 
3 204 210 337 
3 210 216 337 
3 216 222 337 
3 222 231 337 
3 231 233 337 
3 233 226 337 
3 226 220 337 
3 220 214 337 
3 175 177 337 
3 177 186 337 
3 186 192 337 
3 192 198 337 
3 198 204 337 
3 336 338 337 
3 335 336 337 
3 202 196 335 
3 208 202 335 
3 196 190 335 
3 190 184 335 
3 184 182 335 
3 336 333 331 
3 338 336 331 
