ply
format ascii 1.0
comment VCGLIB generated
element vertex 226
property float x
property float y
property float z
element face 448
property list uchar int vertex_indices
end_header
4.181139 20 -39.78088 
4.181139 0 -39.78088 
0 0 -40 
-4.181139 0 -39.78088 
0 20 -40 
0 0 0 
-8.316467 0 -39.1259 
-4.181139 20 -39.78088 
8.316467 20 -39.1259 
8.316467 0 -39.1259 
-12.36068 0 -38.04226 
-8.316467 20 -39.1259 
12.36068 20 -38.04226 
12.36068 0 -38.04226 
-16.26947 0 -36.54182 
-12.36068 20 -38.04226 
16.26947 20 -36.54182 
16.26947 0 -36.54182 
-20 0 -34.64102 
-16.26947 20 -36.54182 
20 20 -34.64102 
20 0 -34.64102 
-23.51141 0 -32.36068 
-20 20 -34.64102 
23.51141 20 -32.36068 
23.51141 0 -32.36068 
-26.76522 0 -29.72579 
-23.51141 20 -32.36068 
26.76522 20 -29.72579 
26.76522 0 -29.72579 
-29.72579 0 -26.76522 
-26.76522 20 -29.72579 
29.72579 20 -26.76522 
29.72579 0 -26.76522 
-32.36068 0 -23.51141 
-29.72579 20 -26.76522 
32.36068 20 -23.51141 
32.36068 0 -23.51141 
-34.64102 0 -20 
-32.36068 20 -23.51141 
34.64102 20 -20 
34.64102 0 -20 
-36.54182 0 -16.26947 
-34.64102 20 -20 
36.54182 20 -16.26947 
36.54182 0 -16.26947 
-38.04226 0 -12.36068 
-36.54182 20 -16.26947 
38.04226 20 -12.36068 
38.04226 0 -12.36068 
-39.1259 0 -8.316467 
-38.04226 20 -12.36068 
39.1259 20 -8.316467 
39.1259 0 -8.316467 
-39.78088 0 -4.181139 
-39.1259 20 -8.316467 
39.78088 20 -4.181139 
39.78088 0 -4.181139 
-40 0 7.347881e-15 
-39.78088 20 -4.181139 
40 20 -2.449294e-15 
40 0 -2.449294e-15 
39.78088 20 4.181139 
39.78088 0 4.181139 
8.316467 0 39.1259 
4.181139 0 39.78088 
1.469576e-14 0 40 
-4.181139 0 39.78088 
20 0 34.64102 
16.26947 0 36.54182 
12.36068 0 38.04226 
29.72579 0 26.76522 
26.76522 0 29.72579 
23.51141 0 32.36068 
36.54182 0 16.26947 
34.64102 0 20 
32.36068 0 23.51141 
39.1259 0 8.316467 
38.04226 0 12.36068 
-39.1259 0 8.316467 
-39.78088 0 4.181139 
-34.64102 0 20 
-36.54182 0 16.26947 
-38.04226 0 12.36068 
-26.76522 0 29.72579 
-29.72579 0 26.76522 
-32.36068 0 23.51141 
-16.26947 0 36.54182 
-20 0 34.64102 
-23.51141 0 32.36068 
-8.316467 0 39.1259 
-12.36068 0 38.04226 
-40 20 7.347881e-15 
-39.78088 20 4.181139 
39.1259 20 8.316467 
-39.1259 20 8.316467 
38.04226 20 12.36068 
-38.04226 20 12.36068 
36.54182 20 16.26947 
-36.54182 20 16.26947 
34.64102 20 20 
-34.64102 20 20 
32.36068 20 23.51141 
-32.36068 20 23.51141 
29.72579 20 26.76522 
-29.72579 20 26.76522 
26.76522 20 29.72579 
-26.76522 20 29.72579 
23.51141 20 32.36068 
-23.51141 20 32.36068 
20 20 34.64102 
-20 20 34.64102 
16.26947 20 36.54182 
-16.26947 20 36.54182 
12.36068 20 38.04226 
-12.36068 20 38.04226 
8.316467 20 39.1259 
-8.316467 20 39.1259 
4.181139 20 39.78088 
-4.181139 20 39.78088 
4.898587e-15 20 40 
3.6161 17 -29.78127 
3.6161 20 -29.78127 
3.673941e-15 17 -30 
3.673941e-15 20 -30 
-3.6161 17 -29.78127 
0 17 0 
-3.6161 20 -29.78127 
-7.17947 17 -29.12826 
7.17947 17 -29.12826 
7.17947 20 -29.12826 
-7.17947 20 -29.12826 
-10.63815 17 -28.05049 
10.63815 17 -28.05049 
10.63815 20 -28.05049 
-10.63815 20 -28.05049 
-13.9417 17 -26.56368 
13.9417 17 -26.56368 
13.9417 20 -26.56368 
-13.9417 20 -26.56368 
-17.04194 17 -24.68952 
17.04194 17 -24.68952 
17.04194 20 -24.68952 
-17.04194 20 -24.68952 
-19.89368 17 -22.45532 
19.89368 17 -22.45532 
19.89368 20 -22.45532 
-19.89368 20 -22.45532 
-22.45532 17 -19.89368 
22.45532 17 -19.89368 
22.45532 20 -19.89368 
-22.45532 20 -19.89368 
-24.68952 17 -17.04194 
24.68952 17 -17.04194 
24.68952 20 -17.04194 
-24.68952 20 -17.04194 
-26.56368 17 -13.9417 
26.56368 17 -13.9417 
26.56368 20 -13.9417 
-26.56368 20 -13.9417 
-28.05049 17 -10.63815 
28.05049 17 -10.63815 
28.05049 20 -10.63815 
-28.05049 20 -10.63815 
-29.12826 17 -7.17947 
29.12826 17 -7.17947 
29.12826 20 -7.17947 
-29.12826 20 -7.17947 
-29.78127 17 -3.6161 
29.78127 17 -3.6161 
29.78127 20 -3.6161 
-29.78127 20 -3.6161 
-30 17 -5.510911e-15 
30 17 1.83697e-15 
30 20 1.83697e-15 
-30 20 -5.510911e-15 
-29.78127 17 3.6161 
-7.347881e-15 17 30 
3.6161 17 29.78127 
-10.63815 17 28.05049 
-7.17947 17 29.12826 
-3.6161 17 29.78127 
-19.89368 17 22.45532 
-17.04194 17 24.68952 
-13.9417 17 26.56368 
-26.56368 17 13.9417 
-24.68952 17 17.04194 
-22.45532 17 19.89368 
-29.12826 17 7.17947 
-28.05049 17 10.63815 
28.05049 17 10.63815 
29.12826 17 7.17947 
29.78127 17 3.6161 
22.45532 17 19.89368 
24.68952 17 17.04194 
26.56368 17 13.9417 
13.9417 17 26.56368 
17.04194 17 24.68952 
19.89368 17 22.45532 
7.17947 17 29.12826 
10.63815 17 28.05049 
29.78127 20 3.6161 
-29.78127 20 3.6161 
29.12826 20 7.17947 
-29.12826 20 7.17947 
28.05049 20 10.63815 
-28.05049 20 10.63815 
26.56368 20 13.9417 
-26.56368 20 13.9417 
24.68952 20 17.04194 
-24.68952 20 17.04194 
22.45532 20 19.89368 
-22.45532 20 19.89368 
19.89368 20 22.45532 
-19.89368 20 22.45532 
17.04194 20 24.68952 
-17.04194 20 24.68952 
13.9417 20 26.56368 
-13.9417 20 26.56368 
10.63815 20 28.05049 
-10.63815 20 28.05049 
7.17947 20 29.12826 
-7.17947 20 29.12826 
3.6161 20 29.78127 
-3.6161 20 29.78127 
0 20 30 
3 0 1 2 
3 3 4 2 
3 4 0 2 
3 5 3 2 
3 1 5 2 
3 6 7 3 
3 7 4 3 
3 5 6 3 
3 0 8 1 
3 8 9 1 
3 9 5 1 
3 10 11 6 
3 11 7 6 
3 5 10 6 
3 8 12 9 
3 12 13 9 
3 13 5 9 
3 14 15 10 
3 15 11 10 
3 5 14 10 
3 12 16 13 
3 16 17 13 
3 17 5 13 
3 18 19 14 
3 19 15 14 
3 5 18 14 
3 16 20 17 
3 20 21 17 
3 21 5 17 
3 22 23 18 
3 23 19 18 
3 5 22 18 
3 20 24 21 
3 24 25 21 
3 25 5 21 
3 26 27 22 
3 27 23 22 
3 5 26 22 
3 24 28 25 
3 28 29 25 
3 29 5 25 
3 30 31 26 
3 31 27 26 
3 5 30 26 
3 28 32 29 
3 32 33 29 
3 33 5 29 
3 34 35 30 
3 35 31 30 
3 5 34 30 
3 32 36 33 
3 36 37 33 
3 37 5 33 
3 38 39 34 
3 39 35 34 
3 5 38 34 
3 36 40 37 
3 40 41 37 
3 41 5 37 
3 42 43 38 
3 43 39 38 
3 5 42 38 
3 40 44 41 
3 44 45 41 
3 45 5 41 
3 46 47 42 
3 47 43 42 
3 5 46 42 
3 44 48 45 
3 48 49 45 
3 49 5 45 
3 50 51 46 
3 51 47 46 
3 5 50 46 
3 48 52 49 
3 52 53 49 
3 53 5 49 
3 54 55 50 
3 55 51 50 
3 5 54 50 
3 52 56 53 
3 56 57 53 
3 57 5 53 
3 58 59 54 
3 59 55 54 
3 5 58 54 
3 56 60 57 
3 60 61 57 
3 61 5 57 
3 60 62 61 
3 62 63 61 
3 63 5 61 
3 64 65 5 
3 65 66 5 
3 66 67 5 
3 68 69 5 
3 69 70 5 
3 70 64 5 
3 71 72 5 
3 72 73 5 
3 73 68 5 
3 74 75 5 
3 75 76 5 
3 76 71 5 
3 63 77 5 
3 77 78 5 
3 78 74 5 
3 79 80 5 
3 80 58 5 
3 81 82 5 
3 82 83 5 
3 83 79 5 
3 84 85 5 
3 85 86 5 
3 86 81 5 
3 87 88 5 
3 88 89 5 
3 89 84 5 
3 67 90 5 
3 90 91 5 
3 91 87 5 
3 80 92 58 
3 92 59 58 
3 79 93 80 
3 93 92 80 
3 62 94 63 
3 94 77 63 
3 83 95 79 
3 95 93 79 
3 94 96 77 
3 96 78 77 
3 82 97 83 
3 97 95 83 
3 96 98 78 
3 98 74 78 
3 81 99 82 
3 99 97 82 
3 98 100 74 
3 100 75 74 
3 86 101 81 
3 101 99 81 
3 100 102 75 
3 102 76 75 
3 85 103 86 
3 103 101 86 
3 102 104 76 
3 104 71 76 
3 84 105 85 
3 105 103 85 
3 104 106 71 
3 106 72 71 
3 89 107 84 
3 107 105 84 
3 106 108 72 
3 108 73 72 
3 88 109 89 
3 109 107 89 
3 108 110 73 
3 110 68 73 
3 87 111 88 
3 111 109 88 
3 110 112 68 
3 112 69 68 
3 91 113 87 
3 113 111 87 
3 112 114 69 
3 114 70 69 
3 90 115 91 
3 115 113 91 
3 114 116 70 
3 116 64 70 
3 67 117 90 
3 117 115 90 
3 116 118 64 
3 118 65 64 
3 66 119 67 
3 119 117 67 
3 118 120 65 
3 120 66 65 
3 120 119 66 
3 121 122 123 
3 122 124 123 
3 124 125 123 
3 126 121 123 
3 125 126 123 
3 124 127 125 
3 127 128 125 
3 128 126 125 
3 129 130 121 
3 130 122 121 
3 126 129 121 
3 127 131 128 
3 131 132 128 
3 132 126 128 
3 133 134 129 
3 134 130 129 
3 126 133 129 
3 131 135 132 
3 135 136 132 
3 136 126 132 
3 137 138 133 
3 138 134 133 
3 126 137 133 
3 135 139 136 
3 139 140 136 
3 140 126 136 
3 141 142 137 
3 142 138 137 
3 126 141 137 
3 139 143 140 
3 143 144 140 
3 144 126 140 
3 145 146 141 
3 146 142 141 
3 126 145 141 
3 143 147 144 
3 147 148 144 
3 148 126 144 
3 149 150 145 
3 150 146 145 
3 126 149 145 
3 147 151 148 
3 151 152 148 
3 152 126 148 
3 153 154 149 
3 154 150 149 
3 126 153 149 
3 151 155 152 
3 155 156 152 
3 156 126 152 
3 157 158 153 
3 158 154 153 
3 126 157 153 
3 155 159 156 
3 159 160 156 
3 160 126 156 
3 161 162 157 
3 162 158 157 
3 126 161 157 
3 159 163 160 
3 163 164 160 
3 164 126 160 
3 165 166 161 
3 166 162 161 
3 126 165 161 
3 163 167 164 
3 167 168 164 
3 168 126 164 
3 169 170 165 
3 170 166 165 
3 126 169 165 
3 167 171 168 
3 171 172 168 
3 172 126 168 
3 173 174 169 
3 174 170 169 
3 126 173 169 
3 171 175 172 
3 175 176 172 
3 176 126 172 
3 177 178 126 
3 179 180 126 
3 180 181 126 
3 181 177 126 
3 182 183 126 
3 183 184 126 
3 184 179 126 
3 185 186 126 
3 186 187 126 
3 187 182 126 
3 176 188 126 
3 188 189 126 
3 189 185 126 
3 190 191 126 
3 191 192 126 
3 192 173 126 
3 193 194 126 
3 194 195 126 
3 195 190 126 
3 196 197 126 
3 197 198 126 
3 198 193 126 
3 178 199 126 
3 199 200 126 
3 200 196 126 
3 192 201 173 
3 201 174 173 
3 175 202 176 
3 202 188 176 
3 191 203 192 
3 203 201 192 
3 202 204 188 
3 204 189 188 
3 190 205 191 
3 205 203 191 
3 204 206 189 
3 206 185 189 
3 195 207 190 
3 207 205 190 
3 206 208 185 
3 208 186 185 
3 194 209 195 
3 209 207 195 
3 208 210 186 
3 210 187 186 
3 193 211 194 
3 211 209 194 
3 210 212 187 
3 212 182 187 
3 198 213 193 
3 213 211 193 
3 212 214 182 
3 214 183 182 
3 197 215 198 
3 215 213 198 
3 214 216 183 
3 216 184 183 
3 196 217 197 
3 217 215 197 
3 216 218 184 
3 218 179 184 
3 200 219 196 
3 219 217 196 
3 218 220 179 
3 220 180 179 
3 199 221 200 
3 221 219 200 
3 220 222 180 
3 222 181 180 
3 178 223 199 
3 223 221 199 
3 222 224 181 
3 224 177 181 
3 177 225 178 
3 225 223 178 
3 224 225 177 
3 124 0 4 
3 127 124 4 
3 7 127 4 
3 131 127 7 
3 11 131 7 
3 122 8 0 
3 124 122 0 
3 135 131 11 
3 15 135 11 
3 130 12 8 
3 122 130 8 
3 19 135 15 
3 134 16 12 
3 130 134 12 
3 139 135 19 
3 23 139 19 
3 134 138 16 
3 138 20 16 
3 143 139 23 
3 27 143 23 
3 138 24 20 
3 147 143 27 
3 31 147 27 
3 142 28 24 
3 138 142 24 
3 151 147 31 
3 35 151 31 
3 146 32 28 
3 142 146 28 
3 155 151 35 
3 39 155 35 
3 150 36 32 
3 146 150 32 
3 159 155 39 
3 43 159 39 
3 154 40 36 
3 150 154 36 
3 47 159 43 
3 158 44 40 
3 154 158 40 
3 163 159 47 
3 51 163 47 
3 158 162 44 
3 162 48 44 
3 167 163 51 
3 55 167 51 
3 162 52 48 
3 166 52 162 
3 171 167 55 
3 59 171 55 
3 166 56 52 
3 170 56 166 
3 175 171 59 
3 92 175 59 
3 170 60 56 
3 174 60 170 
3 92 202 175 
3 174 62 60 
3 201 62 174 
3 93 202 92 
3 93 204 202 
3 203 94 201 
3 94 62 201 
3 95 204 93 
3 95 206 204 
3 205 96 203 
3 96 94 203 
3 97 206 95 
3 99 208 206 
3 97 99 206 
3 207 98 205 
3 98 96 205 
3 99 101 208 
3 101 210 208 
3 209 102 207 
3 102 100 207 
3 100 98 207 
3 101 103 210 
3 103 212 210 
3 211 104 209 
3 104 102 209 
3 103 105 212 
3 105 214 212 
3 213 106 211 
3 106 104 211 
3 105 107 214 
3 107 216 214 
3 215 108 213 
3 108 106 213 
3 107 109 216 
3 109 218 216 
3 217 110 215 
3 110 108 215 
3 109 111 218 
3 111 113 218 
3 113 220 218 
3 219 112 217 
3 112 110 217 
3 113 115 220 
3 115 222 220 
3 221 116 219 
3 116 114 219 
3 114 112 219 
3 115 117 222 
3 117 224 222 
3 223 118 221 
3 118 116 221 
3 117 119 224 
3 119 225 224 
3 225 120 223 
3 120 118 223 
3 119 120 225 
