ply
format ascii 1.0
comment VCGLIB generated
element vertex 230
property float x
property float y
property float z
element face 456
property list uchar int vertex_indices
end_header
3.135854 20 -29.83566 
3.135854 0 -29.83566 
0 0 -30 
-3.135854 0 -29.83566 
0 20 -30 
0 0 0 
-6.237351 0 -29.34443 
-3.135854 20 -29.83566 
6.237351 20 -29.34443 
6.237351 0 -29.34443 
-9.27051 0 -28.53169 
-6.237351 20 -29.34443 
9.27051 20 -28.53169 
9.27051 0 -28.53169 
-12.2021 0 -27.40636 
-9.27051 20 -28.53169 
12.2021 20 -27.40636 
12.2021 0 -27.40636 
-15 0 -25.98076 
-12.2021 20 -27.40636 
15 20 -25.98076 
15 0 -25.98076 
-17.63356 0 -24.27051 
-15 20 -25.98076 
17.63356 20 -24.27051 
17.63356 0 -24.27051 
-20.07392 0 -22.29434 
-17.63356 20 -24.27051 
20.07392 20 -22.29434 
20.07392 0 -22.29434 
-22.29434 0 -20.07392 
-20.07392 20 -22.29434 
22.29434 20 -20.07392 
22.29434 0 -20.07392 
-24.27051 0 -17.63356 
-22.29434 20 -20.07392 
24.27051 20 -17.63356 
24.27051 0 -17.63356 
-25.98076 0 -15 
-24.27051 20 -17.63356 
25.98076 20 -15 
25.98076 0 -15 
-27.40636 0 -12.2021 
-25.98076 20 -15 
27.40636 20 -12.2021 
27.40636 0 -12.2021 
-28.53169 0 -9.27051 
-27.40636 20 -12.2021 
28.53169 20 -9.27051 
28.53169 0 -9.27051 
-29.34443 0 -6.237351 
-28.53169 20 -9.27051 
29.34443 20 -6.237351 
29.34443 0 -6.237351 
-29.83566 0 -3.135854 
-29.34443 20 -6.237351 
29.83566 20 -3.135854 
29.83566 0 -3.135854 
-30 0 5.510911e-15 
-29.83566 20 -3.135854 
30 20 -1.83697e-15 
30 0 -1.83697e-15 
29.83566 20 3.135854 
29.83566 0 3.135854 
6.237351 0 29.34443 
3.135854 0 29.83566 
1.102182e-14 0 30 
-3.135854 0 29.83566 
15 0 25.98076 
12.2021 0 27.40636 
9.27051 0 28.53169 
22.29434 0 20.07392 
20.07392 0 22.29434 
17.63356 0 24.27051 
27.40636 0 12.2021 
25.98076 0 15 
24.27051 0 17.63356 
29.34443 0 6.237351 
28.53169 0 9.27051 
-29.34443 0 6.237351 
-29.83566 0 3.135854 
-25.98076 0 15 
-27.40636 0 12.2021 
-28.53169 0 9.27051 
-20.07392 0 22.29434 
-22.29434 0 20.07392 
-24.27051 0 17.63356 
-12.2021 0 27.40636 
-15 0 25.98076 
-17.63356 0 24.27051 
-6.237351 0 29.34443 
-9.27051 0 28.53169 
-30 20 5.510911e-15 
-29.83566 20 3.135854 
29.34443 20 6.237351 
-29.34443 20 6.237351 
28.53169 20 9.27051 
-28.53169 20 9.27051 
27.40636 20 12.2021 
-27.40636 20 12.2021 
25.98076 20 15 
-25.98076 20 15 
24.27051 20 17.63356 
-24.27051 20 17.63356 
22.29434 20 20.07392 
-22.29434 20 20.07392 
20.07392 20 22.29434 
-20.07392 20 22.29434 
17.63356 20 24.27051 
-17.63356 20 24.27051 
15 20 25.98076 
-15 20 25.98076 
12.2021 20 27.40636 
-12.2021 20 27.40636 
9.27051 20 28.53169 
-9.27051 20 28.53169 
6.237351 20 29.34443 
-6.237351 20 29.34443 
3.135854 20 29.83566 
-3.135854 20 29.83566 
3.673941e-15 20 30 
2.78623 17 -23.83772 
2.78623 20 -23.83772 
2.939152e-15 17 -24 
2.939152e-15 20 -24 
-2.78623 17 -23.83772 
0 17 0 
-2.78623 20 -23.83772 
-5.534781 17 -23.35308 
5.534781 17 -23.35308 
5.534781 20 -23.35308 
-5.534781 20 -23.35308 
-8.208484 17 -22.55262 
8.208484 17 -22.55262 
8.208484 20 -22.55262 
-8.208484 20 -22.55262 
-10.77118 17 -21.44718 
10.77118 17 -21.44718 
10.77118 20 -21.44718 
-10.77118 20 -21.44718 
-13.18822 17 -20.05171 
13.18822 17 -20.05171 
13.18822 20 -20.05171 
-13.18822 20 -20.05171 
-15.4269 17 -18.38507 
15.4269 17 -18.38507 
15.4269 20 -18.38507 
-15.4269 20 -18.38507 
-17.45697 17 -16.4698 
17.45697 17 -16.4698 
17.45697 20 -16.4698 
-17.45697 20 -16.4698 
-19.25096 17 -14.33181 
19.25096 17 -14.33181 
19.25096 20 -14.33181 
-19.25096 20 -14.33181 
-20.78461 17 -12 
20.78461 17 -12 
20.78461 20 -12 
-20.78461 20 -12 
-22.03719 17 -9.505915 
22.03719 17 -9.505915 
22.03719 20 -9.505915 
-22.03719 20 -9.505915 
-22.99175 17 -6.883277 
22.99175 17 -6.883277 
22.99175 20 -6.883277 
-22.99175 20 -6.883277 
-23.63539 17 -4.167556 
23.63539 17 -4.167556 
23.63539 20 -4.167556 
-23.63539 20 -4.167556 
-23.9594 17 -1.395476 
23.9594 17 -1.395476 
23.9594 20 -1.395476 
-23.9594 20 -1.395476 
-23.9594 17 1.395476 
23.9594 17 1.395476 
23.9594 20 1.395476 
-5.534781 17 23.35308 
-2.78623 17 23.83772 
-5.878304e-15 17 24 
2.78623 17 23.83772 
-13.18822 17 20.05171 
-10.77118 17 21.44718 
-8.208484 17 22.55262 
-19.25096 17 14.33181 
-17.45697 17 16.4698 
-15.4269 17 18.38507 
-22.99175 17 6.883277 
-22.03719 17 9.505915 
-20.78461 17 12 
-23.63539 17 4.167556 
22.03719 17 9.505915 
22.99175 17 6.883277 
23.63539 17 4.167556 
17.45697 17 16.4698 
19.25096 17 14.33181 
20.78461 17 12 
10.77118 17 21.44718 
13.18822 17 20.05171 
15.4269 17 18.38507 
5.534781 17 23.35308 
8.208484 17 22.55262 
-23.9594 20 1.395476 
23.63539 20 4.167556 
-23.63539 20 4.167556 
22.99175 20 6.883277 
-22.99175 20 6.883277 
22.03719 20 9.505915 
-22.03719 20 9.505915 
20.78461 20 12 
-20.78461 20 12 
19.25096 20 14.33181 
-19.25096 20 14.33181 
17.45697 20 16.4698 
-17.45697 20 16.4698 
15.4269 20 18.38507 
-15.4269 20 18.38507 
13.18822 20 20.05171 
-13.18822 20 20.05171 
10.77118 20 21.44718 
-10.77118 20 21.44718 
8.208484 20 22.55262 
-8.208484 20 22.55262 
5.534781 20 23.35308 
-5.534781 20 23.35308 
2.78623 20 23.83772 
-2.78623 20 23.83772 
-5.878304e-15 20 24 
3 0 1 2 
3 3 4 2 
3 4 0 2 
3 5 3 2 
3 1 5 2 
3 6 7 3 
3 7 4 3 
3 5 6 3 
3 0 8 1 
3 8 9 1 
3 9 5 1 
3 10 11 6 
3 11 7 6 
3 5 10 6 
3 8 12 9 
3 12 13 9 
3 13 5 9 
3 14 15 10 
3 15 11 10 
3 5 14 10 
3 12 16 13 
3 16 17 13 
3 17 5 13 
3 18 19 14 
3 19 15 14 
3 5 18 14 
3 16 20 17 
3 20 21 17 
3 21 5 17 
3 22 23 18 
3 23 19 18 
3 5 22 18 
3 20 24 21 
3 24 25 21 
3 25 5 21 
3 26 27 22 
3 27 23 22 
3 5 26 22 
3 24 28 25 
3 28 29 25 
3 29 5 25 
3 30 31 26 
3 31 27 26 
3 5 30 26 
3 28 32 29 
3 32 33 29 
3 33 5 29 
3 34 35 30 
3 35 31 30 
3 5 34 30 
3 32 36 33 
3 36 37 33 
3 37 5 33 
3 38 39 34 
3 39 35 34 
3 5 38 34 
3 36 40 37 
3 40 41 37 
3 41 5 37 
3 42 43 38 
3 43 39 38 
3 5 42 38 
3 40 44 41 
3 44 45 41 
3 45 5 41 
3 46 47 42 
3 47 43 42 
3 5 46 42 
3 44 48 45 
3 48 49 45 
3 49 5 45 
3 50 51 46 
3 51 47 46 
3 5 50 46 
3 48 52 49 
3 52 53 49 
3 53 5 49 
3 54 55 50 
3 55 51 50 
3 5 54 50 
3 52 56 53 
3 56 57 53 
3 57 5 53 
3 58 59 54 
3 59 55 54 
3 5 58 54 
3 56 60 57 
3 60 61 57 
3 61 5 57 
3 60 62 61 
3 62 63 61 
3 63 5 61 
3 64 65 5 
3 65 66 5 
3 66 67 5 
3 68 69 5 
3 69 70 5 
3 70 64 5 
3 71 72 5 
3 72 73 5 
3 73 68 5 
3 74 75 5 
3 75 76 5 
3 76 71 5 
3 63 77 5 
3 77 78 5 
3 78 74 5 
3 79 80 5 
3 80 58 5 
3 81 82 5 
3 82 83 5 
3 83 79 5 
3 84 85 5 
3 85 86 5 
3 86 81 5 
3 87 88 5 
3 88 89 5 
3 89 84 5 
3 67 90 5 
3 90 91 5 
3 91 87 5 
3 80 92 58 
3 92 59 58 
3 79 93 80 
3 93 92 80 
3 62 94 63 
3 94 77 63 
3 83 95 79 
3 95 93 79 
3 94 96 77 
3 96 78 77 
3 82 97 83 
3 97 95 83 
3 96 98 78 
3 98 74 78 
3 81 99 82 
3 99 97 82 
3 98 100 74 
3 100 75 74 
3 86 101 81 
3 101 99 81 
3 100 102 75 
3 102 76 75 
3 85 103 86 
3 103 101 86 
3 102 104 76 
3 104 71 76 
3 84 105 85 
3 105 103 85 
3 104 106 71 
3 106 72 71 
3 89 107 84 
3 107 105 84 
3 106 108 72 
3 108 73 72 
3 88 109 89 
3 109 107 89 
3 108 110 73 
3 110 68 73 
3 87 111 88 
3 111 109 88 
3 110 112 68 
3 112 69 68 
3 91 113 87 
3 113 111 87 
3 112 114 69 
3 114 70 69 
3 90 115 91 
3 115 113 91 
3 114 116 70 
3 116 64 70 
3 67 117 90 
3 117 115 90 
3 116 118 64 
3 118 65 64 
3 66 119 67 
3 119 117 67 
3 118 120 65 
3 120 66 65 
3 120 119 66 
3 121 122 123 
3 122 124 123 
3 124 125 123 
3 126 121 123 
3 125 126 123 
3 124 127 125 
3 127 128 125 
3 128 126 125 
3 129 130 121 
3 130 122 121 
3 126 129 121 
3 127 131 128 
3 131 132 128 
3 132 126 128 
3 133 134 129 
3 134 130 129 
3 126 133 129 
3 131 135 132 
3 135 136 132 
3 136 126 132 
3 137 138 133 
3 138 134 133 
3 126 137 133 
3 135 139 136 
3 139 140 136 
3 140 126 136 
3 141 142 137 
3 142 138 137 
3 126 141 137 
3 139 143 140 
3 143 144 140 
3 144 126 140 
3 145 146 141 
3 146 142 141 
3 126 145 141 
3 143 147 144 
3 147 148 144 
3 148 126 144 
3 149 150 145 
3 150 146 145 
3 126 149 145 
3 147 151 148 
3 151 152 148 
3 152 126 148 
3 153 154 149 
3 154 150 149 
3 126 153 149 
3 151 155 152 
3 155 156 152 
3 156 126 152 
3 157 158 153 
3 158 154 153 
3 126 157 153 
3 155 159 156 
3 159 160 156 
3 160 126 156 
3 161 162 157 
3 162 158 157 
3 126 161 157 
3 159 163 160 
3 163 164 160 
3 164 126 160 
3 165 166 161 
3 166 162 161 
3 126 165 161 
3 163 167 164 
3 167 168 164 
3 168 126 164 
3 169 170 165 
3 170 166 165 
3 126 169 165 
3 167 171 168 
3 171 172 168 
3 172 126 168 
3 173 174 169 
3 174 170 169 
3 126 173 169 
3 171 175 172 
3 175 176 172 
3 176 126 172 
3 177 178 173 
3 178 174 173 
3 126 177 173 
3 179 180 126 
3 180 181 126 
3 181 182 126 
3 183 184 126 
3 184 185 126 
3 185 179 126 
3 186 187 126 
3 187 188 126 
3 188 183 126 
3 189 190 126 
3 190 191 126 
3 191 186 126 
3 176 192 126 
3 192 189 126 
3 193 194 126 
3 194 195 126 
3 195 177 126 
3 196 197 126 
3 197 198 126 
3 198 193 126 
3 199 200 126 
3 200 201 126 
3 201 196 126 
3 182 202 126 
3 202 203 126 
3 203 199 126 
3 175 204 176 
3 204 192 176 
3 195 205 177 
3 205 178 177 
3 204 206 192 
3 206 189 192 
3 194 207 195 
3 207 205 195 
3 206 208 189 
3 208 190 189 
3 193 209 194 
3 209 207 194 
3 208 210 190 
3 210 191 190 
3 198 211 193 
3 211 209 193 
3 210 212 191 
3 212 186 191 
3 197 213 198 
3 213 211 198 
3 212 214 186 
3 214 187 186 
3 196 215 197 
3 215 213 197 
3 214 216 187 
3 216 188 187 
3 201 217 196 
3 217 215 196 
3 216 218 188 
3 218 183 188 
3 200 219 201 
3 219 217 201 
3 218 220 183 
3 220 184 183 
3 199 221 200 
3 221 219 200 
3 220 222 184 
3 222 185 184 
3 203 223 199 
3 223 221 199 
3 222 224 185 
3 224 179 185 
3 202 225 203 
3 225 223 203 
3 224 226 179 
3 226 180 179 
3 182 227 202 
3 227 225 202 
3 226 228 180 
3 228 181 180 
3 181 229 182 
3 229 227 182 
3 228 229 181 
3 124 0 4 
3 127 124 4 
3 7 127 4 
3 131 127 7 
3 11 131 7 
3 122 8 0 
3 124 122 0 
3 135 131 11 
3 15 135 11 
3 130 12 8 
3 122 130 8 
3 139 135 15 
3 19 139 15 
3 134 16 12 
3 130 134 12 
3 23 139 19 
3 138 20 16 
3 134 138 16 
3 143 139 23 
3 27 143 23 
3 138 142 20 
3 142 24 20 
3 147 143 27 
3 31 147 27 
3 142 28 24 
3 151 147 31 
3 35 151 31 
3 146 32 28 
3 142 146 28 
3 155 151 35 
3 39 155 35 
3 150 36 32 
3 146 150 32 
3 159 155 39 
3 43 159 39 
3 154 40 36 
3 150 154 36 
3 163 159 43 
3 47 163 43 
3 158 44 40 
3 154 158 40 
3 167 163 47 
3 51 167 47 
3 162 48 44 
3 158 162 44 
3 166 48 162 
3 171 167 51 
3 55 171 51 
3 166 52 48 
3 170 52 166 
3 175 171 55 
3 59 175 55 
3 170 56 52 
3 174 56 170 
3 92 175 59 
3 174 60 56 
3 92 204 175 
3 178 60 174 
3 178 62 60 
3 93 204 92 
3 93 206 204 
3 205 94 178 
3 94 62 178 
3 95 206 93 
3 95 208 206 
3 207 96 205 
3 96 94 205 
3 97 208 95 
3 97 210 208 
3 209 98 207 
3 98 96 207 
3 99 210 97 
3 99 212 210 
3 211 100 209 
3 100 98 209 
3 99 101 212 
3 101 214 212 
3 213 102 211 
3 102 100 211 
3 101 103 214 
3 103 216 214 
3 215 104 213 
3 104 102 213 
3 103 105 216 
3 105 218 216 
3 217 106 215 
3 106 104 215 
3 105 107 218 
3 107 220 218 
3 219 108 217 
3 108 106 217 
3 107 109 220 
3 109 111 220 
3 111 222 220 
3 221 110 219 
3 110 108 219 
3 111 113 222 
3 113 224 222 
3 223 114 221 
3 114 112 221 
3 112 110 221 
3 113 115 224 
3 115 226 224 
3 225 116 223 
3 116 114 223 
3 115 117 226 
3 117 228 226 
3 227 118 225 
3 118 116 225 
3 117 119 228 
3 119 229 228 
3 229 120 227 
3 120 118 227 
3 119 120 229 
