ply
format ascii 1.0
comment VCGLIB generated
element vertex 214
property float x
property float y
property float z
element face 424
property list uchar int vertex_indices
end_header
22.07498 0 -27.07098 
22.98485 140.4333 -27.21265 
27.145 0 -27.5025 
27.145 140.4333 -27.5025 
32.21503 0 -27.07098 
27.145 0 2.497499 
17.15081 0 -25.78882 
19.99288 140.99 -26.63748 
22.06943 140.5706 -27.07003 
32.21503 140.6123 -27.07098 
37.13919 0 -25.78882 
31.05479 140.4333 -27.24664 
17.14226 141.8201 -25.7858 
17.99439 141.54 -26.07288 
15.16236 142.5822 -25.00553 
12.51415 0 -23.69292 
34.15107 141.0151 -26.67295 
36.04524 141.54 -26.15186 
37.13919 141.9047 -25.78882 
41.77585 0 -23.69292 
13.26132 143.4706 -24.09655 
8.298401 0 -20.84357 
10.65124 144.9705 -22.56155 
12.50506 143.8701 -23.68784 
41.77585 144.0033 -23.69292 
45.9916 0 -20.84357 
40.7892 143.4762 -24.22021 
39.00193 142.6356 -25.05996 
8.29084 146.6529 -20.83747 
8.920587 146.1701 -21.33254 
6.623131 148.0668 -19.38521 
4.624832 0 -17.32274 
43.50908 145.0485 -22.64643 
45.12928 146.1778 -21.51428 
45.9916 146.8461 -20.84357 
49.66517 0 -17.32274 
5.09599 149.5616 -17.84559 
1.599127 0 -13.23172 
3.17805 151.7825 -15.54648 
4.619897 150.0734 -17.31713 
49.66517 150.3467 -17.32274 
52.69088 0 -13.23172 
48.95184 149.5702 -18.10497 
47.5265 148.1676 -19.51601 
1.597088 154.0026 -13.22841 
1.896591 153.5482 -13.7049 
0.418937 155.9877 -11.13032 
-0.6916699 0 -8.688195 
50.97441 151.9276 -15.72774 
52.14861 153.5565 -14.08018 
52.69088 154.3934 -13.23172 
54.98167 0 -8.688195 
-0.5863726 158.0164 -8.946754 
-2.181656 0 -3.822879 
-1.535006 160.3882 -6.303478 
-0.6914662 158.2527 -8.688703 
54.98167 158.8395 -8.688195 
56.47166 0 -3.822879 
54.62938 158.0239 -9.527839 
53.72801 156.1871 -11.40731 
-2.827968 0 1.224263 
-2.286445 162.8554 -3.315418 
-2.181656 162.4611 -3.822879 
55.7289 160.838 -6.61078 
56.32411 162.8478 -4.472413 
56.47166 163.4425 -3.822879 
57.11797 0 1.224263 
-2.75086 164.9572 8.673617e-15 
-2.554143 163.9787 -1.740526 
-2.827968 200 1.224263 
-2.612012 0 6.308033 
56.8103 165.0659 -1.971326 
57.04086 166.558 0 
56.90201 200 6.308033 
56.90201 0 6.308033 
57.11797 200 1.224263 
27.145 0 32.4975 
24.60082 0 32.38942 
29.68918 0 32.38942 
43.94424 0 27.35279 
39.50204 0 29.83435 
34.70434 0 31.52949 
53.93277 0 16.00361 
51.26492 0 20.33649 
47.90316 0 24.15618 
55.83 0 11.28218 
0.3572251 0 16.00361 
-1.540001 0 11.28218 
10.34576 0 27.35279 
6.386835 0 24.15618 
3.025087 0 20.33649 
19.58566 0 31.52949 
14.78796 0 29.83435 
-2.612012 200 6.308033 
55.83 200 11.28218 
-1.540001 200 11.28218 
53.93277 200 16.00361 
0.3572251 200 16.00361 
51.26492 200 20.33649 
3.025087 200 20.33649 
47.90316 200 24.15618 
6.386835 200 24.15618 
43.94424 200 27.35279 
10.34576 200 27.35279 
39.50204 200 29.83435 
14.78796 200 29.83435 
34.70434 200 31.52949 
19.58566 200 31.52949 
29.68918 200 32.38942 
24.60082 200 32.38942 
17.99439 141.54 -55 
22.98485 140.4333 -55 
31.05479 140.4333 -55 
5.09599 191.3049 -55 
36.04524 141.54 -55 
13.26132 143.4706 -55 
40.77832 143.4706 -55 
8.920587 146.1701 -55 
45.11905 146.1701 -55 
5.09599 149.5616 -55 
48.94365 149.5616 -55 
1.896591 153.5482 -55 
52.14304 153.5482 -55 
-0.5863726 158.0164 -55 
1.896591 187.3183 -55 
-2.282096 178.0279 -55 
-0.5863726 182.8502 -55 
54.62601 158.0164 -55 
-2.282096 162.8386 -55 
56.32173 162.8386 -55 
-3.142221 167.8774 -55 
57.18186 167.8774 -55 
8.920587 194.6964 -55 
13.26132 197.3959 -55 
-3.142221 167.8774 0 
-3.142221 172.9891 0 
-2.75086 175.9094 0 
57.18186 167.8774 0 
57.04086 174.3085 1.474515e-14 
-3.142221 172.9891 -55 
57.18186 172.9891 -55 
57.18186 172.9891 0 
-2.554144 176.8878 -1.740515 
56.32173 178.0279 -55 
56.32173 178.0279 -4.482352 
56.47008 177.4306 -3.830188 
56.80974 175.8037 -1.97498 
56.47166 200 -3.822879 
-2.282096 178.0279 -3.337396 
-2.179618 178.4128 -3.83233 
-1.53501 180.4783 -6.303465 
-0.6916699 182.6133 -8.688195 
55.72775 180.032 -6.614397 
54.62601 182.8502 -55 
54.62601 182.8502 -9.535545 
54.9828 182.0243 -8.685388 
-2.181656 200 -3.822879 
54.98167 200 -8.688195 
-0.6916699 200 -8.688195 
-0.5879462 182.8466 -8.942941 
0.4184684 184.8779 -11.1294 
1.599127 186.8671 -13.23172 
53.72894 184.6777 -11.40552 
52.14304 187.3183 -55 
52.14304 187.3183 -14.08857 
52.69507 186.4664 -13.2249 
52.69088 200 -13.23172 
1.599127 200 -13.23172 
1.892862 187.3127 -13.69909 
3.177448 189.0833 -15.54568 
4.624832 190.7986 -17.32274 
50.97463 188.9386 -15.72745 
48.94365 191.3049 -55 
48.94365 191.3049 -18.11364 
49.67252 190.5115 -17.3144 
49.66517 200 -17.32274 
4.624832 200 -17.32274 
5.089926 191.2986 -17.83901 
6.627084 192.8033 -19.38891 
8.298401 194.2196 -20.84357 
47.52871 192.6968 -19.51397 
45.11905 194.6964 -55 
45.11905 194.6964 -21.52194 
46.00163 194.0123 -20.83547 
45.9916 200 -20.84357 
8.298401 200 -20.84357 
8.912567 194.6904 -21.3264 
10.64825 195.8941 -22.55958 
12.51415 197.0014 -23.69292 
43.50505 195.8206 -22.64905 
40.77832 197.3959 -55 
40.77832 197.3959 -24.22576 
41.78731 196.8568 -23.68652 
17.99439 199.3265 -55 
41.77585 200 -23.69292 
12.51415 200 -23.69292 
13.25249 197.3914 -24.09194 
15.15929 198.283 -25.00419 
17.15081 199.0494 -25.78882 
37.13919 198.9618 -25.78882 
39.00541 198.2294 -25.05846 
36.04524 199.3265 -26.15186 
36.04524 199.3265 -55 
37.13919 200 -25.78882 
17.15081 200 -25.78882 
17.99439 199.3265 -26.07288 
22.98485 200.4333 -55 
33.50739 200 -26.82007 
31.05479 200.4333 -55 
20.53225 200 -26.76462 
33.50739 200 0 
31.05479 200.4333 0 
20.53225 200 0 
22.98485 200.4333 0 
3 0 1 2 
3 1 3 2 
3 3 4 2 
3 4 5 2 
3 5 0 2 
3 6 7 0 
3 7 8 0 
3 8 1 0 
3 5 6 0 
3 9 10 4 
3 3 11 4 
3 11 9 4 
3 10 5 4 
3 12 13 6 
3 13 7 6 
3 14 12 6 
3 15 14 6 
3 5 15 6 
3 9 16 10 
3 16 17 10 
3 17 18 10 
3 18 19 10 
3 19 5 10 
3 20 14 15 
3 21 22 15 
3 22 23 15 
3 23 20 15 
3 5 21 15 
3 24 25 19 
3 26 24 19 
3 18 27 19 
3 27 26 19 
3 25 5 19 
3 28 29 21 
3 29 22 21 
3 30 28 21 
3 31 30 21 
3 5 31 21 
3 24 32 25 
3 32 33 25 
3 33 34 25 
3 34 35 25 
3 35 5 25 
3 36 30 31 
3 37 38 31 
3 38 39 31 
3 39 36 31 
3 5 37 31 
3 40 41 35 
3 42 40 35 
3 34 43 35 
3 43 42 35 
3 41 5 35 
3 44 45 37 
3 45 38 37 
3 46 44 37 
3 47 46 37 
3 5 47 37 
3 40 48 41 
3 48 49 41 
3 49 50 41 
3 50 51 41 
3 51 5 41 
3 52 46 47 
3 53 54 47 
3 54 55 47 
3 55 52 47 
3 5 53 47 
3 56 57 51 
3 58 56 51 
3 50 59 51 
3 59 58 51 
3 57 5 51 
3 60 61 53 
3 61 62 53 
3 62 54 53 
3 5 60 53 
3 56 63 57 
3 63 64 57 
3 64 65 57 
3 65 66 57 
3 66 5 57 
3 67 68 60 
3 68 61 60 
3 69 67 60 
3 70 69 60 
3 5 70 60 
3 65 71 66 
3 71 72 66 
3 73 74 66 
3 75 73 66 
3 72 75 66 
3 74 5 66 
3 76 77 5 
3 78 76 5 
3 79 80 5 
3 80 81 5 
3 81 78 5 
3 82 83 5 
3 83 84 5 
3 84 79 5 
3 74 85 5 
3 85 82 5 
3 86 87 5 
3 87 70 5 
3 88 89 5 
3 89 90 5 
3 90 86 5 
3 77 91 5 
3 91 92 5 
3 92 88 5 
3 93 69 70 
3 87 93 70 
3 94 85 74 
3 73 94 74 
3 95 93 87 
3 86 95 87 
3 96 82 85 
3 94 96 85 
3 97 95 86 
3 90 97 86 
3 98 83 82 
3 96 98 82 
3 99 97 90 
3 89 99 90 
3 100 84 83 
3 98 100 83 
3 101 99 89 
3 88 101 89 
3 102 79 84 
3 100 102 84 
3 103 101 88 
3 92 103 88 
3 104 80 79 
3 102 104 79 
3 105 103 92 
3 91 105 92 
3 106 81 80 
3 104 106 80 
3 107 105 91 
3 77 107 91 
3 108 78 81 
3 106 108 81 
3 109 107 77 
3 76 109 77 
3 108 76 78 
3 108 109 76 
3 1 110 111 
3 3 1 111 
3 112 3 111 
3 113 112 111 
3 110 113 111 
3 9 11 112 
3 114 9 112 
3 11 3 112 
3 113 114 112 
3 8 110 1 
3 7 110 8 
3 114 16 9 
3 13 110 7 
3 114 17 16 
3 13 115 110 
3 115 113 110 
3 116 18 114 
3 18 17 114 
3 113 116 114 
3 12 115 13 
3 14 115 12 
3 116 27 18 
3 20 115 14 
3 116 26 27 
3 20 117 115 
3 117 113 115 
3 24 26 116 
3 118 24 116 
3 113 118 116 
3 23 117 20 
3 22 117 23 
3 118 32 24 
3 29 117 22 
3 118 33 32 
3 29 119 117 
3 119 113 117 
3 120 34 118 
3 34 33 118 
3 113 120 118 
3 28 119 29 
3 30 119 28 
3 120 43 34 
3 36 119 30 
3 120 42 43 
3 36 121 119 
3 121 113 119 
3 40 42 120 
3 122 40 120 
3 113 122 120 
3 39 121 36 
3 38 121 39 
3 122 48 40 
3 45 121 38 
3 122 49 48 
3 45 123 121 
3 124 113 121 
3 123 125 121 
3 125 126 121 
3 126 124 121 
3 127 50 122 
3 50 49 122 
3 113 127 122 
3 44 123 45 
3 46 123 44 
3 127 59 50 
3 52 123 46 
3 127 58 59 
3 52 128 123 
3 128 125 123 
3 56 58 127 
3 129 56 127 
3 113 129 127 
3 55 128 52 
3 54 128 55 
3 129 63 56 
3 62 128 54 
3 129 64 63 
3 61 128 62 
3 61 130 128 
3 130 125 128 
3 131 65 129 
3 65 64 129 
3 113 132 129 
3 132 133 129 
3 133 131 129 
3 68 130 61 
3 131 71 65 
3 134 130 68 
3 67 134 68 
3 135 134 67 
3 136 135 67 
3 69 136 67 
3 131 72 71 
3 131 137 72 
3 137 138 72 
3 138 75 72 
3 135 139 130 
3 134 135 130 
3 139 125 130 
3 140 137 131 
3 133 140 131 
3 140 141 137 
3 141 138 137 
3 142 125 139 
3 136 142 139 
3 135 136 139 
3 143 144 140 
3 144 145 140 
3 145 146 140 
3 146 141 140 
3 133 143 140 
3 146 138 141 
3 146 75 138 
3 145 147 146 
3 147 75 146 
3 69 142 136 
3 69 148 142 
3 148 125 142 
3 144 147 145 
3 148 149 125 
3 149 150 125 
3 150 151 125 
3 151 126 125 
3 152 144 143 
3 153 154 143 
3 154 155 143 
3 155 152 143 
3 133 153 143 
3 152 147 144 
3 69 149 148 
3 156 150 149 
3 69 156 149 
3 157 147 152 
3 155 157 152 
3 156 151 150 
3 154 157 155 
3 158 159 151 
3 156 158 151 
3 159 126 151 
3 158 160 159 
3 160 126 159 
3 161 124 126 
3 160 161 126 
3 162 154 153 
3 163 164 153 
3 164 165 153 
3 165 162 153 
3 133 163 153 
3 162 157 154 
3 165 166 162 
3 166 157 162 
3 158 161 160 
3 164 166 165 
3 167 168 161 
3 158 167 161 
3 168 124 161 
3 167 169 168 
3 169 124 168 
3 169 170 124 
3 170 113 124 
3 171 164 163 
3 172 173 163 
3 173 174 163 
3 174 171 163 
3 133 172 163 
3 171 166 164 
3 175 166 171 
3 174 175 171 
3 167 170 169 
3 173 175 174 
3 167 176 170 
3 176 177 170 
3 177 113 170 
3 176 178 177 
3 178 113 177 
3 179 132 113 
3 178 179 113 
3 180 173 172 
3 181 182 172 
3 182 183 172 
3 183 180 172 
3 133 181 172 
3 180 175 173 
3 183 184 180 
3 184 175 180 
3 176 179 178 
3 182 184 183 
3 185 186 179 
3 176 185 179 
3 186 132 179 
3 185 187 186 
3 187 132 186 
3 187 188 132 
3 188 133 132 
3 189 182 181 
3 190 191 181 
3 191 192 181 
3 192 189 181 
3 193 190 181 
3 133 193 181 
3 189 184 182 
3 194 184 189 
3 192 194 189 
3 185 188 187 
3 191 194 192 
3 185 195 188 
3 195 196 188 
3 196 133 188 
3 195 197 196 
3 197 133 196 
3 198 193 133 
3 197 198 133 
3 199 200 190 
3 200 191 190 
3 201 199 190 
3 202 201 190 
3 193 202 190 
3 200 194 191 
3 199 203 200 
3 203 194 200 
3 195 198 197 
3 201 203 199 
3 204 205 198 
3 195 204 198 
3 205 193 198 
3 205 206 193 
3 206 202 193 
3 207 201 202 
3 208 207 202 
3 206 208 202 
3 207 203 201 
3 204 209 205 
3 209 206 205 
3 210 203 207 
3 211 210 207 
3 208 211 207 
3 204 212 209 
3 212 213 209 
3 213 206 209 
3 195 212 204 
3 210 194 203 
3 185 212 195 
3 210 184 194 
3 176 212 185 
3 210 175 184 
3 167 212 176 
3 210 166 175 
3 158 212 167 
3 210 157 166 
3 156 212 158 
3 210 147 157 
3 69 212 156 
3 210 75 147 
3 100 210 212 
3 102 100 212 
3 101 103 212 
3 103 105 212 
3 105 107 212 
3 107 109 212 
3 109 108 212 
3 108 106 212 
3 106 104 212 
3 104 102 212 
3 69 93 212 
3 93 95 212 
3 95 97 212 
3 97 99 212 
3 99 101 212 
3 211 213 212 
3 210 211 212 
3 98 96 210 
3 100 98 210 
3 96 94 210 
3 94 73 210 
3 73 75 210 
3 211 208 206 
3 213 211 206 
