ply
format ascii 1.0
comment VCGLIB generated
element vertex 198
property float x
property float y
property float z
element face 392
property list uchar int vertex_indices
end_header
22.20716 0 -27.09334 
27.145 200 -27.5025 
27.145 0 -27.5025 
32.08284 200 -27.09334 
32.08284 0 -27.09334 
27.145 0 2.497499 
17.40402 0 -25.87702 
22.20716 200 -27.09334 
36.88598 200 -25.87702 
36.88598 0 -25.87702 
12.86658 0 -23.88671 
17.40402 200 -25.87702 
41.42342 200 -23.88671 
41.42342 0 -23.88671 
8.718619 0 -21.17672 
12.86658 200 -23.88671 
45.57138 200 -21.17672 
45.57138 0 -21.17672 
5.073283 0 -17.82095 
8.718619 200 -21.17672 
49.21672 200 -17.82095 
49.21672 0 -17.82095 
2.030007 0 -13.91095 
5.073283 200 -17.82095 
52.26 200 -13.91095 
52.26 0 -13.91095 
-0.3281989 0 -9.553364 
2.030007 200 -13.91095 
54.6182 200 -9.553364 
54.6182 0 -9.553364 
-1.937007 0 -4.867066 
-0.3281989 200 -9.553364 
56.22701 200 -4.867066 
56.22701 0 -4.867066 
-2.752534 0 0.02011861 
-2.75086 27.5025 0 
-2.75086 32.4975 8.673617e-15 
-1.937007 200 -4.867066 
57.04086 27.5025 0 
57.04253 0 0.02011861 
57.04086 32.4975 1.301043e-15 
-2.752534 0 4.974879 
-2.752534 27.52262 4.974879 
57.04253 27.52262 4.974879 
57.04253 0 4.974879 
27.145 0 32.4975 
22.20716 0 32.08834 
32.08284 0 32.08834 
45.57138 0 26.17171 
41.42342 0 28.88171 
36.88598 0 30.87202 
54.6182 0 14.54836 
52.26 0 18.90594 
49.21672 0 22.81595 
56.22701 0 9.862063 
-0.3281989 0 14.54836 
-1.937007 0 9.862063 
8.718619 0 26.17171 
5.073283 0 22.81595 
2.030007 0 18.90594 
17.40402 0 30.87202 
12.86658 0 28.88171 
-1.937007 22.63544 9.862063 
-2.445838 25.06216 7.435337 
56.73584 25.06216 7.435337 
-0.3281989 17.94914 14.54836 
-1.229516 20.25902 12.23848 
55.51952 20.25902 12.23848 
56.22701 22.63544 9.862063 
2.030007 13.59155 18.90594 
0.7607883 15.72158 16.77592 
53.52921 15.72158 16.77592 
54.6182 17.94914 14.54836 
5.073283 9.681553 22.81595 
3.470786 11.57362 20.92388 
50.81921 11.57362 20.92388 
52.26 13.59155 18.90594 
8.718619 6.325785 26.17171 
6.826554 7.928283 24.56922 
47.46345 7.928283 24.56922 
49.21672 9.681553 22.81595 
12.86658 3.615788 28.88171 
10.73656 4.885006 27.61249 
43.55344 4.885006 27.61249 
45.57138 6.325785 26.17171 
17.40402 1.625483 30.87202 
15.09414 2.5268 29.9707 
39.19587 2.5268 29.9707 
41.42342 3.615788 28.88171 
22.20716 0.4091609 32.08834 
19.78044 0.9179921 31.57951 
34.50957 0.9179921 31.57951 
36.88598 1.625483 30.87202 
24.66762 0.1024652 32.39503 
29.62238 0.1024652 32.39503 
32.08284 0.4091609 32.08834 
29.62238 0.1024652 55 
24.66762 0.1024652 55 
34.50957 0.9179921 55 
19.78044 0.9179921 55 
27.145 30 55 
39.19587 2.5268 55 
15.09414 2.5268 55 
43.55344 4.885006 55 
10.73656 4.885006 55 
47.46345 7.928283 55 
6.826554 7.928283 55 
50.81921 11.57362 55 
3.470786 11.57362 55 
53.52921 15.72158 55 
0.7607883 15.72158 55 
55.51952 20.25902 55 
-1.229516 20.25902 55 
56.73584 25.06216 55 
-2.445838 25.06216 55 
57.145 30 55 
-2.854999 30 55 
-2.854999 30 0 
-2.854999 30 2.497499 
57.145 30 0 
57.145 30 2.497499 
-2.752534 32.47738 4.974879 
57.04253 32.47738 4.974879 
-2.445838 34.93784 55 
-2.445838 34.93784 7.435337 
56.73584 34.93784 55 
0.7607883 44.27842 55 
-1.229516 39.74098 55 
10.73656 55.11499 55 
6.826554 52.07172 55 
3.470786 48.42638 55 
24.66762 59.89753 55 
19.78044 59.08201 55 
15.09414 57.4732 55 
39.19587 57.4732 55 
34.50957 59.08201 55 
29.62238 59.89753 55 
50.81921 48.42638 55 
47.46345 52.07172 55 
43.55344 55.11499 55 
55.51952 39.74098 55 
53.52921 44.27842 55 
-2.752534 200 4.974879 
-2.752534 200 0.02011861 
57.04253 200 0.02011861 
57.04253 200 4.974879 
56.73584 34.93784 7.435337 
-1.937007 37.36456 9.862063 
-1.937007 200 9.862063 
56.22701 37.36456 9.862063 
-1.229516 39.74098 12.23848 
56.22701 200 9.862063 
55.51952 39.74098 12.23848 
-0.3281989 42.05087 14.54836 
-0.3281989 200 14.54836 
54.6182 42.05087 14.54836 
0.7607883 44.27842 16.77592 
54.6182 200 14.54836 
53.52921 44.27842 16.77592 
2.030007 46.40844 18.90594 
2.030007 200 18.90594 
52.26 46.40844 18.90594 
3.470786 48.42638 20.92388 
52.26 200 18.90594 
50.81921 48.42638 20.92388 
5.073283 50.31845 22.81595 
5.073283 200 22.81595 
49.21672 50.31845 22.81595 
6.826554 52.07172 24.56922 
49.21672 200 22.81595 
47.46345 52.07172 24.56922 
8.718619 53.67421 26.17171 
8.718619 200 26.17171 
45.57138 53.67421 26.17171 
10.73656 55.11499 27.61249 
45.57138 200 26.17171 
43.55344 55.11499 27.61249 
12.86658 56.38421 28.88171 
12.86658 200 28.88171 
41.42342 56.38421 28.88171 
15.09414 57.4732 29.9707 
41.42342 200 28.88171 
39.19587 57.4732 29.9707 
17.40402 58.37452 30.87202 
17.40402 200 30.87202 
36.88598 58.37452 30.87202 
19.78044 59.08201 31.57951 
36.88598 200 30.87202 
34.50957 59.08201 31.57951 
22.20716 59.59084 32.08834 
22.20716 200 32.08834 
32.08284 59.59084 32.08834 
24.66762 59.89753 32.39503 
32.08284 200 32.08834 
29.62238 59.89753 32.39503 
27.145 60 32.4975 
27.145 200 32.4975 
27.145 200 2.497499 
3 0 1 2 
3 1 3 2 
3 3 4 2 
3 4 5 2 
3 5 0 2 
3 6 7 0 
3 7 1 0 
3 5 6 0 
3 3 8 4 
3 8 9 4 
3 9 5 4 
3 10 11 6 
3 11 7 6 
3 5 10 6 
3 8 12 9 
3 12 13 9 
3 13 5 9 
3 14 15 10 
3 15 11 10 
3 5 14 10 
3 12 16 13 
3 16 17 13 
3 17 5 13 
3 18 19 14 
3 19 15 14 
3 5 18 14 
3 16 20 17 
3 20 21 17 
3 21 5 17 
3 22 23 18 
3 23 19 18 
3 5 22 18 
3 20 24 21 
3 24 25 21 
3 25 5 21 
3 26 27 22 
3 27 23 22 
3 5 26 22 
3 24 28 25 
3 28 29 25 
3 29 5 25 
3 30 31 26 
3 31 27 26 
3 5 30 26 
3 28 32 29 
3 32 33 29 
3 33 5 29 
3 34 35 30 
3 35 36 30 
3 36 37 30 
3 37 31 30 
3 5 34 30 
3 38 39 33 
3 32 40 33 
3 40 38 33 
3 39 5 33 
3 41 42 34 
3 42 35 34 
3 5 41 34 
3 38 43 39 
3 43 44 39 
3 44 5 39 
3 45 46 5 
3 47 45 5 
3 48 49 5 
3 49 50 5 
3 50 47 5 
3 51 52 5 
3 52 53 5 
3 53 48 5 
3 44 54 5 
3 54 51 5 
3 55 56 5 
3 56 41 5 
3 57 58 5 
3 58 59 5 
3 59 55 5 
3 46 60 5 
3 60 61 5 
3 61 57 5 
3 56 62 41 
3 62 63 41 
3 63 42 41 
3 43 64 44 
3 64 54 44 
3 55 65 56 
3 65 66 56 
3 66 62 56 
3 67 51 54 
3 64 68 54 
3 68 67 54 
3 59 69 55 
3 69 70 55 
3 70 65 55 
3 71 52 51 
3 67 72 51 
3 72 71 51 
3 58 73 59 
3 73 74 59 
3 74 69 59 
3 75 53 52 
3 71 76 52 
3 76 75 52 
3 57 77 58 
3 77 78 58 
3 78 73 58 
3 79 48 53 
3 75 80 53 
3 80 79 53 
3 61 81 57 
3 81 82 57 
3 82 77 57 
3 83 49 48 
3 79 84 48 
3 84 83 48 
3 60 85 61 
3 85 86 61 
3 86 81 61 
3 87 50 49 
3 83 88 49 
3 88 87 49 
3 46 89 60 
3 89 90 60 
3 90 85 60 
3 91 47 50 
3 87 92 50 
3 92 91 50 
3 45 93 46 
3 93 89 46 
3 94 45 47 
3 91 95 47 
3 95 94 47 
3 94 96 45 
3 96 93 45 
3 96 97 93 
3 97 89 93 
3 98 96 94 
3 95 98 94 
3 99 89 97 
3 96 100 97 
3 100 99 97 
3 98 100 96 
3 99 90 89 
3 91 98 95 
3 99 85 90 
3 101 98 91 
3 92 101 91 
3 102 85 99 
3 100 102 99 
3 101 100 98 
3 102 86 85 
3 87 101 92 
3 102 81 86 
3 103 101 87 
3 88 103 87 
3 104 81 102 
3 100 104 102 
3 103 100 101 
3 104 82 81 
3 83 103 88 
3 104 77 82 
3 105 103 83 
3 84 105 83 
3 106 77 104 
3 100 106 104 
3 105 100 103 
3 106 78 77 
3 79 105 84 
3 106 73 78 
3 107 105 79 
3 80 107 79 
3 108 73 106 
3 100 108 106 
3 107 100 105 
3 108 74 73 
3 75 107 80 
3 108 69 74 
3 109 107 75 
3 76 109 75 
3 110 69 108 
3 100 110 108 
3 109 100 107 
3 110 70 69 
3 71 109 76 
3 110 65 70 
3 111 109 71 
3 72 111 71 
3 112 65 110 
3 100 112 110 
3 111 100 109 
3 112 66 65 
3 67 111 72 
3 112 62 66 
3 113 111 67 
3 68 113 67 
3 114 62 112 
3 100 114 112 
3 113 100 111 
3 114 63 62 
3 64 113 68 
3 114 42 63 
3 115 113 64 
3 43 115 64 
3 116 42 114 
3 100 116 114 
3 115 100 113 
3 117 36 35 
3 118 117 35 
3 40 119 38 
3 119 120 38 
3 120 43 38 
3 42 118 35 
3 116 118 42 
3 120 115 43 
3 118 36 117 
3 40 120 119 
3 121 36 118 
3 116 121 118 
3 40 122 120 
3 122 115 120 
3 123 124 116 
3 124 121 116 
3 100 123 116 
3 115 125 100 
3 126 127 100 
3 127 123 100 
3 128 129 100 
3 129 130 100 
3 130 126 100 
3 131 132 100 
3 132 133 100 
3 133 128 100 
3 134 135 100 
3 135 136 100 
3 136 131 100 
3 137 138 100 
3 138 139 100 
3 139 134 100 
3 125 140 100 
3 140 141 100 
3 141 137 100 
3 122 125 115 
3 124 142 121 
3 142 143 121 
3 143 36 121 
3 144 145 122 
3 40 144 122 
3 145 146 122 
3 146 125 122 
3 32 144 40 
3 143 37 36 
3 147 148 124 
3 148 142 124 
3 123 147 124 
3 145 149 146 
3 149 125 146 
3 127 150 123 
3 150 147 123 
3 149 140 125 
3 150 148 147 
3 151 152 149 
3 145 151 149 
3 152 140 149 
3 153 154 150 
3 154 148 150 
3 127 153 150 
3 151 155 152 
3 155 140 152 
3 126 156 127 
3 156 153 127 
3 155 141 140 
3 156 154 153 
3 151 157 155 
3 157 158 155 
3 158 141 155 
3 159 160 156 
3 160 154 156 
3 126 159 156 
3 157 161 158 
3 161 141 158 
3 130 162 126 
3 162 159 126 
3 161 137 141 
3 162 160 159 
3 163 164 161 
3 157 163 161 
3 164 137 161 
3 165 166 162 
3 166 160 162 
3 130 165 162 
3 163 167 164 
3 167 137 164 
3 129 168 130 
3 168 165 130 
3 167 138 137 
3 168 166 165 
3 163 169 167 
3 169 170 167 
3 170 138 167 
3 171 172 168 
3 172 166 168 
3 129 171 168 
3 169 173 170 
3 173 138 170 
3 128 174 129 
3 174 171 129 
3 173 139 138 
3 174 172 171 
3 175 176 173 
3 169 175 173 
3 176 139 173 
3 177 178 174 
3 178 172 174 
3 128 177 174 
3 175 179 176 
3 179 139 176 
3 133 180 128 
3 180 177 128 
3 179 134 139 
3 180 178 177 
3 175 181 179 
3 181 182 179 
3 182 134 179 
3 183 184 180 
3 184 178 180 
3 133 183 180 
3 181 185 182 
3 185 134 182 
3 132 186 133 
3 186 183 133 
3 185 135 134 
3 186 184 183 
3 187 188 185 
3 181 187 185 
3 188 135 185 
3 189 190 186 
3 190 184 186 
3 132 189 186 
3 187 191 188 
3 191 135 188 
3 131 192 132 
3 192 189 132 
3 191 136 135 
3 192 190 189 
3 193 194 191 
3 187 193 191 
3 194 136 191 
3 195 196 192 
3 196 190 192 
3 131 195 192 
3 193 195 194 
3 131 136 194 
3 195 131 194 
3 193 196 195 
3 7 197 1 
3 197 3 1 
3 11 197 7 
3 197 8 3 
3 15 197 11 
3 197 12 8 
3 19 197 15 
3 197 16 12 
3 23 197 19 
3 197 20 16 
3 27 197 23 
3 197 24 20 
3 31 197 27 
3 197 28 24 
3 37 197 31 
3 197 32 28 
3 143 197 37 
3 197 144 32 
3 142 197 143 
3 197 145 144 
3 196 193 197 
3 190 196 197 
3 172 178 197 
3 178 184 197 
3 184 190 197 
3 154 160 197 
3 160 166 197 
3 166 172 197 
3 142 148 197 
3 148 154 197 
3 157 151 197 
3 151 145 197 
3 175 169 197 
3 169 163 197 
3 163 157 197 
3 193 187 197 
3 187 181 197 
3 181 175 197 
