ply 
format ascii 1.0
comment object: @BrushBot_BrushBotLink0_After_3ec379714bbed689250ce9bf96f1e1946f1686e81
element vertex 291
property float x
property float y
property float z
property uchar red
property uchar green
property uchar blue
element face 456
property list uchar int vertex_index
end_header
0.00313585 0.02 -0.0298357 39 55 156
0.00313585 0 -0.0298357 39 55 156
0 0 -0.03 39 55 156
-0.00313585 0 -0.0298357 39 55 156
0 0.02 -0.03 39 55 156
0 0 0 39 55 156
-0.00623735 0 -0.0293444 39 55 156
-0.00313585 0.02 -0.0298357 39 55 156
0.00623735 0.02 -0.0293444 39 55 156
0.00623735 0 -0.0293444 39 55 156
-0.00927051 0 -0.0285317 39 55 156
-0.00623735 0.02 -0.0293444 39 55 156
0.00927051 0.02 -0.0285317 39 55 156
0.00927051 0 -0.0285317 39 55 156
-0.0122021 0 -0.0274064 39 55 156
-0.00927051 0.02 -0.0285317 39 55 156
0.0122021 0.02 -0.0274064 39 55 156
0.0122021 0 -0.0274064 39 55 156
-0.015 0 -0.0259808 39 55 156
-0.0122021 0.02 -0.0274064 39 55 156
0.015 0.02 -0.0259808 39 55 156
0.015 0 -0.0259808 39 55 156
-0.0176336 0 -0.0242705 39 55 156
-0.015 0.02 -0.0259808 39 55 156
0.0176336 0.02 -0.0242705 39 55 156
0.0176336 0 -0.0242705 39 55 156
-0.0200739 0 -0.0222943 39 55 156
-0.0176336 0.02 -0.0242705 39 55 156
0.0200739 0.02 -0.0222943 39 55 156
0.0200739 0 -0.0222943 39 55 156
-0.0222943 0 -0.0200739 39 55 156
-0.0200739 0.02 -0.0222943 39 55 156
0.0222943 0.02 -0.0200739 39 55 156
0.0222943 0 -0.0200739 39 55 156
-0.0242705 0 -0.0176336 39 55 156
-0.0222943 0.02 -0.0200739 39 55 156
0.0242705 0.02 -0.0176336 39 55 156
0.0242705 0 -0.0176336 39 55 156
-0.0259808 0 -0.015 39 55 156
-0.0242705 0.02 -0.0176336 39 55 156
0.0242705 0.02 -0.0176336 39 55 156
0.0259808 0.02 -0.015 39 55 156
0.0242705 0 -0.0176336 39 55 156
0.0259808 0 -0.015 39 55 156
0.0259808 0 -0.015 39 55 156
-0.0274064 0 -0.0122021 39 55 156
-0.0259808 0.02 -0.015 39 55 156
0.0274064 0.02 -0.0122021 39 55 156
0.0274064 0 -0.0122021 39 55 156
0.0274064 0 -0.0122021 39 55 156
-0.0285317 0 -0.00927051 39 55 156
-0.0274064 0.02 -0.0122021 39 55 156
0.0285317 0.02 -0.00927051 39 55 156
0.0285317 0 -0.00927051 39 55 156
0.0285317 0 -0.00927051 39 55 156
-0.0293444 0 -0.00623735 39 55 156
-0.0285317 0.02 -0.00927051 39 55 156
0.0293444 0.02 -0.00623735 39 55 156
0.0293444 0 -0.00623735 39 55 156
0.0293444 0 -0.00623735 39 55 156
-0.0298357 0 -0.00313585 39 55 156
-0.0293444 0.02 -0.00623735 39 55 156
0.0298357 0.02 -0.00313585 39 55 156
0.0298357 0 -0.00313585 39 55 156
0.0298357 0 -0.00313585 39 55 156
-0.03 0 5.51091e-18 39 55 156
-0.0298357 0.02 -0.00313585 39 55 156
0.03 0.02 -1.83697e-18 39 55 156
0.03 0 -1.83697e-18 39 55 156
0.03 0 -1.83697e-18 39 55 156
0.0298357 0.02 0.00313585 39 55 156
0.0298357 0 0.00313585 39 55 156
0.0298357 0 0.00313585 39 55 156
0.00623735 0 0.0293444 39 55 156
0.00313585 0 0.0298357 39 55 156
1.10218e-17 0 0.03 39 55 156
-0.00313585 0 0.0298357 39 55 156
0.015 0 0.0259808 39 55 156
0.0122021 0 0.0274064 39 55 156
0.00927051 0 0.0285317 39 55 156
0.0222943 0 0.0200739 39 55 156
0.0200739 0 0.0222943 39 55 156
0.0176336 0 0.0242705 39 55 156
0.0274064 0 0.0122021 39 55 156
0.0259808 0 0.015 39 55 156
0.0242705 0 0.0176336 39 55 156
0.0293444 0 0.00623735 39 55 156
0.0285317 0 0.00927051 39 55 156
-0.0293444 0 0.00623735 39 55 156
-0.0298357 0 0.00313585 39 55 156
-0.0259808 0 0.015 39 55 156
-0.0274064 0 0.0122021 39 55 156
-0.0285317 0 0.00927051 39 55 156
-0.0200739 0 0.0222943 39 55 156
-0.0222943 0 0.0200739 39 55 156
-0.0242705 0 0.0176336 39 55 156
-0.0122021 0 0.0274064 39 55 156
-0.015 0 0.0259808 39 55 156
-0.0176336 0 0.0242705 39 55 156
-0.00623735 0 0.0293444 39 55 156
-0.00927051 0 0.0285317 39 55 156
-0.03 0.02 5.51091e-18 39 55 156
-0.0298357 0.02 0.00313585 39 55 156
0.0293444 0.02 0.00623735 39 55 156
0.0293444 0 0.00623735 39 55 156
-0.0293444 0.02 0.00623735 39 55 156
0.0285317 0.02 0.00927051 39 55 156
0.0285317 0 0.00927051 39 55 156
-0.0285317 0.02 0.00927051 39 55 156
0.0274064 0.02 0.0122021 39 55 156
0.0274064 0 0.0122021 39 55 156
-0.0274064 0.02 0.0122021 39 55 156
0.0259808 0.02 0.015 39 55 156
0.0259808 0 0.015 39 55 156
-0.0259808 0.02 0.015 39 55 156
0.0242705 0.02 0.0176336 39 55 156
0.0242705 0 0.0176336 39 55 156
-0.0242705 0.02 0.0176336 39 55 156
0.0222943 0.02 0.0200739 39 55 156
0.0222943 0 0.0200739 39 55 156
-0.0222943 0.02 0.0200739 39 55 156
0.0200739 0.02 0.0222943 39 55 156
0.0200739 0 0.0222943 39 55 156
-0.0200739 0.02 0.0222943 39 55 156
0.0176336 0.02 0.0242705 39 55 156
0.0176336 0 0.0242705 39 55 156
-0.015 0 0.0259808 39 55 156
-0.0176336 0.02 0.0242705 39 55 156
-0.0176336 0 0.0242705 39 55 156
-0.0200739 0.02 0.0222943 39 55 156
0.015 0.02 0.0259808 39 55 156
0.015 0 0.0259808 39 55 156
-0.0122021 0 0.0274064 39 55 156
-0.015 0.02 0.0259808 39 55 156
0.0122021 0.02 0.0274064 39 55 156
0.0122021 0 0.0274064 39 55 156
-0.00927051 0 0.0285317 39 55 156
-0.0122021 0.02 0.0274064 39 55 156
0.00927051 0.02 0.0285317 39 55 156
0.00927051 0 0.0285317 39 55 156
-0.00623735 0 0.0293444 39 55 156
-0.00927051 0.02 0.0285317 39 55 156
0.00623735 0.02 0.0293444 39 55 156
0.00623735 0 0.0293444 39 55 156
-0.00313585 0 0.0298357 39 55 156
-0.00623735 0.02 0.0293444 39 55 156
0.00313585 0.02 0.0298357 39 55 156
0.00313585 0 0.0298357 39 55 156
1.10218e-17 0 0.03 39 55 156
-0.00313585 0.02 0.0298357 39 55 156
3.67394e-18 0.02 0.03 39 55 156
0.00278623 0.017 -0.0238377 39 55 156
0.00278623 0.02 -0.0238377 39 55 156
2.93915e-18 0.017 -0.024 39 55 156
2.93915e-18 0.02 -0.024 39 55 156
-0.00278623 0.017 -0.0238377 39 55 156
0 0.017 0 39 55 156
-0.00278623 0.02 -0.0238377 39 55 156
-0.00553478 0.017 -0.0233531 39 55 156
0.00553478 0.017 -0.0233531 39 55 156
0.00553478 0.02 -0.0233531 39 55 156
-0.00553478 0.02 -0.0233531 39 55 156
-0.00820848 0.017 -0.0225526 39 55 156
0.00820848 0.017 -0.0225526 39 55 156
0.00820848 0.02 -0.0225526 39 55 156
-0.00820848 0.02 -0.0225526 39 55 156
-0.0107712 0.017 -0.0214472 39 55 156
0.0107712 0.017 -0.0214472 39 55 156
0.0107712 0.02 -0.0214472 39 55 156
-0.0107712 0.02 -0.0214472 39 55 156
-0.0131882 0.017 -0.0200517 39 55 156
0.0131882 0.017 -0.0200517 39 55 156
0.0131882 0.02 -0.0200517 39 55 156
-0.0131882 0.02 -0.0200517 39 55 156
-0.0154269 0.017 -0.0183851 39 55 156
0.0154269 0.017 -0.0183851 39 55 156
0.0154269 0.02 -0.0183851 39 55 156
-0.0154269 0.02 -0.0183851 39 55 156
-0.017457 0.017 -0.0164698 39 55 156
0.017457 0.017 -0.0164698 39 55 156
0.017457 0.02 -0.0164698 39 55 156
-0.017457 0.02 -0.0164698 39 55 156
-0.019251 0.017 -0.0143318 39 55 156
0.019251 0.017 -0.0143318 39 55 156
0.019251 0.02 -0.0143318 39 55 156
-0.019251 0.02 -0.0143318 39 55 156
-0.0207846 0.017 -0.012 39 55 156
0.0207846 0.017 -0.012 39 55 156
0.0207846 0.02 -0.012 39 55 156
-0.0207846 0.02 -0.012 39 55 156
-0.0220372 0.017 -0.00950591 39 55 156
0.0220372 0.017 -0.00950591 39 55 156
0.0220372 0.02 -0.00950591 39 55 156
-0.0220372 0.02 -0.00950591 39 55 156
-0.0229918 0.017 -0.00688328 39 55 156
0.0229918 0.017 -0.00688328 39 55 156
0.0229918 0.02 -0.00688328 39 55 156
-0.0229918 0.02 -0.00688328 39 55 156
-0.0236354 0.017 -0.00416756 39 55 156
0.0236354 0.017 -0.00416756 39 55 156
0.0236354 0.02 -0.00416756 39 55 156
-0.0236354 0.02 -0.00416756 39 55 156
-0.0239594 0.017 -0.00139548 39 55 156
0.0239594 0.017 -0.00139548 39 55 156
0.0239594 0.02 -0.00139548 39 55 156
-0.0239594 0.02 -0.00139548 39 55 156
-0.0239594 0.017 0.00139548 39 55 156
0.0239594 0.017 0.00139548 39 55 156
0.0239594 0.02 0.00139548 39 55 156
-0.00553478 0.017 0.0233531 39 55 156
-0.00278623 0.017 0.0238377 39 55 156
-5.8783e-18 0.017 0.024 39 55 156
0.00278623 0.017 0.0238377 39 55 156
-0.0131882 0.017 0.0200517 39 55 156
-0.0107712 0.017 0.0214472 39 55 156
-0.00820848 0.017 0.0225526 39 55 156
-0.019251 0.017 0.0143318 39 55 156
-0.017457 0.017 0.0164698 39 55 156
-0.0154269 0.017 0.0183851 39 55 156
-0.0229918 0.017 0.00688328 39 55 156
-0.0220372 0.017 0.00950591 39 55 156
-0.0207846 0.017 0.012 39 55 156
-0.0236354 0.017 0.00416756 39 55 156
0.0220372 0.017 0.00950591 39 55 156
0.0229918 0.017 0.00688328 39 55 156
0.0236354 0.017 0.00416756 39 55 156
0.017457 0.017 0.0164698 39 55 156
0.019251 0.017 0.0143318 39 55 156
0.0207846 0.017 0.012 39 55 156
0.0107712 0.017 0.0214472 39 55 156
0.0131882 0.017 0.0200517 39 55 156
0.0154269 0.017 0.0183851 39 55 156
0.00553478 0.017 0.0233531 39 55 156
0.00820848 0.017 0.0225526 39 55 156
-0.0239594 0.02 0.00139548 39 55 156
0.0236354 0.02 0.00416756 39 55 156
-0.0236354 0.02 0.00416756 39 55 156
0.0229918 0.02 0.00688328 39 55 156
-0.0229918 0.02 0.00688328 39 55 156
0.0220372 0.02 0.00950591 39 55 156
-0.0220372 0.02 0.00950591 39 55 156
0.0207846 0.02 0.012 39 55 156
-0.0207846 0.02 0.012 39 55 156
0.019251 0.02 0.0143318 39 55 156
-0.019251 0.02 0.0143318 39 55 156
0.017457 0.02 0.0164698 39 55 156
-0.017457 0.02 0.0164698 39 55 156
0.0154269 0.02 0.0183851 39 55 156
-0.0154269 0.02 0.0183851 39 55 156
0.0131882 0.02 0.0200517 39 55 156
-0.0131882 0.02 0.0200517 39 55 156
0.0107712 0.02 0.0214472 39 55 156
-0.0107712 0.02 0.0214472 39 55 156
0.00820848 0.02 0.0225526 39 55 156
-0.00820848 0.02 0.0225526 39 55 156
0.00553478 0.02 0.0233531 39 55 156
-0.00553478 0.02 0.0233531 39 55 156
0.00278623 0.02 0.0238377 39 55 156
-0.00278623 0.02 0.0238377 39 55 156
-5.8783e-18 0.02 0.024 39 55 156
0.00313585 0.02 -0.0298357 39 55 156
0 0.02 -0.03 39 55 156
-0.00313585 0.02 -0.0298357 39 55 156
-0.00623735 0.02 -0.0293444 39 55 156
0.00623735 0.02 -0.0293444 39 55 156
-0.00927051 0.02 -0.0285317 39 55 156
0.00927051 0.02 -0.0285317 39 55 156
-0.0122021 0.02 -0.0274064 39 55 156
0.0122021 0.02 -0.0274064 39 55 156
-0.015 0.02 -0.0259808 39 55 156
0.015 0.02 -0.0259808 39 55 156
-0.0176336 0.02 -0.0242705 39 55 156
0.0176336 0.02 -0.0242705 39 55 156
-0.0200739 0.02 -0.0222943 39 55 156
0.0200739 0.02 -0.0222943 39 55 156
-0.0222943 0.02 -0.0200739 39 55 156
0.0222943 0.02 -0.0200739 39 55 156
-0.0242705 0.02 -0.0176336 39 55 156
-0.0259808 0.02 -0.015 39 55 156
-0.0274064 0.02 -0.0122021 39 55 156
-0.0285317 0.02 -0.00927051 39 55 156
-0.0293444 0.02 -0.00623735 39 55 156
-0.0298357 0.02 -0.00313585 39 55 156
-0.03 0.02 5.51091e-18 39 55 156
-0.0298357 0.02 0.00313585 39 55 156
-0.0293444 0.02 0.00623735 39 55 156
-0.0285317 0.02 0.00927051 39 55 156
-0.0274064 0.02 0.0122021 39 55 156
-0.0259808 0.02 0.015 39 55 156
-0.0242705 0.02 0.0176336 39 55 156
-0.0222943 0.02 0.0200739 39 55 156
3 0 1 2
3 3 4 2
3 4 0 2
3 5 3 2
3 1 5 2
3 6 7 3
3 7 4 3
3 5 6 3
3 0 8 1
3 8 9 1
3 9 5 1
3 10 11 6
3 11 7 6
3 5 10 6
3 8 12 9
3 12 13 9
3 13 5 9
3 14 15 10
3 15 11 10
3 5 14 10
3 12 16 13
3 16 17 13
3 17 5 13
3 18 19 14
3 19 15 14
3 5 18 14
3 16 20 17
3 20 21 17
3 21 5 17
3 22 23 18
3 23 19 18
3 5 22 18
3 20 24 21
3 24 25 21
3 25 5 21
3 26 27 22
3 27 23 22
3 5 26 22
3 24 28 25
3 28 29 25
3 29 5 25
3 30 31 26
3 31 27 26
3 5 30 26
3 28 32 29
3 32 33 29
3 33 5 29
3 34 35 30
3 35 31 30
3 5 34 30
3 32 36 33
3 36 37 33
3 37 5 33
3 38 39 34
3 39 35 34
3 5 38 34
3 40 41 42
3 41 43 42
3 44 5 37
3 45 46 38
3 46 39 38
3 5 45 38
3 41 47 43
3 47 48 43
3 49 5 44
3 50 51 45
3 51 46 45
3 5 50 45
3 47 52 48
3 52 53 48
3 54 5 49
3 55 56 50
3 56 51 50
3 5 55 50
3 52 57 53
3 57 58 53
3 59 5 54
3 60 61 55
3 61 56 55
3 5 60 55
3 57 62 58
3 62 63 58
3 64 5 59
3 65 66 60
3 66 61 60
3 5 65 60
3 62 67 63
3 67 68 63
3 69 5 64
3 67 70 68
3 70 71 68
3 72 5 69
3 73 74 5
3 74 75 5
3 75 76 5
3 77 78 5
3 78 79 5
3 79 73 5
3 80 81 5
3 81 82 5
3 82 77 5
3 83 84 5
3 84 85 5
3 85 80 5
3 72 86 5
3 86 87 5
3 87 83 5
3 88 89 5
3 89 65 5
3 90 91 5
3 91 92 5
3 92 88 5
3 93 94 5
3 94 95 5
3 95 90 5
3 96 97 5
3 97 98 5
3 98 93 5
3 76 99 5
3 99 100 5
3 100 96 5
3 89 101 65
3 101 66 65
3 88 102 89
3 102 101 89
3 70 103 71
3 103 104 71
3 92 105 88
3 105 102 88
3 103 106 104
3 106 107 104
3 91 108 92
3 108 105 92
3 106 109 107
3 109 110 107
3 90 111 91
3 111 108 91
3 109 112 110
3 112 113 110
3 95 114 90
3 114 111 90
3 112 115 113
3 115 116 113
3 94 117 95
3 117 114 95
3 115 118 116
3 118 119 116
3 93 120 94
3 120 117 94
3 118 121 119
3 121 122 119
3 98 123 93
3 123 120 93
3 121 124 122
3 124 125 122
3 126 127 128
3 127 129 128
3 124 130 125
3 130 131 125
3 132 133 126
3 133 127 126
3 130 134 131
3 134 135 131
3 136 137 132
3 137 133 132
3 134 138 135
3 138 139 135
3 140 141 136
3 141 137 136
3 138 142 139
3 142 143 139
3 144 145 140
3 145 141 140
3 142 146 143
3 146 147 143
3 148 149 144
3 149 145 144
3 146 150 147
3 150 148 147
3 150 149 148
3 151 152 153
3 152 154 153
3 154 155 153
3 156 151 153
3 155 156 153
3 154 157 155
3 157 158 155
3 158 156 155
3 159 160 151
3 160 152 151
3 156 159 151
3 157 161 158
3 161 162 158
3 162 156 158
3 163 164 159
3 164 160 159
3 156 163 159
3 161 165 162
3 165 166 162
3 166 156 162
3 167 168 163
3 168 164 163
3 156 167 163
3 165 169 166
3 169 170 166
3 170 156 166
3 171 172 167
3 172 168 167
3 156 171 167
3 169 173 170
3 173 174 170
3 174 156 170
3 175 176 171
3 176 172 171
3 156 175 171
3 173 177 174
3 177 178 174
3 178 156 174
3 179 180 175
3 180 176 175
3 156 179 175
3 177 181 178
3 181 182 178
3 182 156 178
3 183 184 179
3 184 180 179
3 156 183 179
3 181 185 182
3 185 186 182
3 186 156 182
3 187 188 183
3 188 184 183
3 156 187 183
3 185 189 186
3 189 190 186
3 190 156 186
3 191 192 187
3 192 188 187
3 156 191 187
3 189 193 190
3 193 194 190
3 194 156 190
3 195 196 191
3 196 192 191
3 156 195 191
3 193 197 194
3 197 198 194
3 198 156 194
3 199 200 195
3 200 196 195
3 156 199 195
3 197 201 198
3 201 202 198
3 202 156 198
3 203 204 199
3 204 200 199
3 156 203 199
3 201 205 202
3 205 206 202
3 206 156 202
3 207 208 203
3 208 204 203
3 156 207 203
3 209 210 156
3 210 211 156
3 211 212 156
3 213 214 156
3 214 215 156
3 215 209 156
3 216 217 156
3 217 218 156
3 218 213 156
3 219 220 156
3 220 221 156
3 221 216 156
3 206 222 156
3 222 219 156
3 223 224 156
3 224 225 156
3 225 207 156
3 226 227 156
3 227 228 156
3 228 223 156
3 229 230 156
3 230 231 156
3 231 226 156
3 212 232 156
3 232 233 156
3 233 229 156
3 205 234 206
3 234 222 206
3 225 235 207
3 235 208 207
3 234 236 222
3 236 219 222
3 224 237 225
3 237 235 225
3 236 238 219
3 238 220 219
3 223 239 224
3 239 237 224
3 238 240 220
3 240 221 220
3 228 241 223
3 241 239 223
3 240 242 221
3 242 216 221
3 227 243 228
3 243 241 228
3 242 244 216
3 244 217 216
3 226 245 227
3 245 243 227
3 244 246 217
3 246 218 217
3 231 247 226
3 247 245 226
3 246 248 218
3 248 213 218
3 230 249 231
3 249 247 231
3 248 250 213
3 250 214 213
3 229 251 230
3 251 249 230
3 250 252 214
3 252 215 214
3 233 253 229
3 253 251 229
3 252 254 215
3 254 209 215
3 232 255 233
3 255 253 233
3 254 256 209
3 256 210 209
3 212 257 232
3 257 255 232
3 256 258 210
3 258 211 210
3 211 259 212
3 259 257 212
3 258 259 211
3 154 260 261
3 157 154 261
3 262 157 261
3 161 157 262
3 263 161 262
3 152 264 260
3 154 152 260
3 165 161 263
3 265 165 263
3 160 266 264
3 152 160 264
3 169 165 265
3 267 169 265
3 164 268 266
3 160 164 266
3 269 169 267
3 168 270 268
3 164 168 268
3 173 169 269
3 271 173 269
3 168 172 270
3 172 272 270
3 177 173 271
3 273 177 271
3 172 274 272
3 181 177 273
3 275 181 273
3 176 276 274
3 172 176 274
3 185 181 275
3 277 185 275
3 180 40 276
3 176 180 276
3 189 185 277
3 278 189 277
3 184 41 40
3 180 184 40
3 193 189 278
3 279 193 278
3 188 47 41
3 184 188 41
3 197 193 279
3 280 197 279
3 192 52 47
3 188 192 47
3 196 52 192
3 201 197 280
3 281 201 280
3 196 57 52
3 200 57 196
3 205 201 281
3 282 205 281
3 200 62 57
3 204 62 200
3 283 205 282
3 204 67 62
3 283 234 205
3 208 67 204
3 208 70 67
3 284 234 283
3 284 236 234
3 235 103 208
3 103 70 208
3 285 236 284
3 285 238 236
3 237 106 235
3 106 103 235
3 286 238 285
3 286 240 238
3 239 109 237
3 109 106 237
3 287 240 286
3 287 242 240
3 241 112 239
3 112 109 239
3 287 288 242
3 288 244 242
3 243 115 241
3 115 112 241
3 288 289 244
3 289 246 244
3 245 118 243
3 118 115 243
3 289 290 246
3 290 248 246
3 247 121 245
3 121 118 245
3 290 129 248
3 129 250 248
3 249 124 247
3 124 121 247
3 129 127 250
3 127 133 250
3 133 252 250
3 251 130 249
3 130 124 249
3 133 137 252
3 137 254 252
3 253 138 251
3 138 134 251
3 134 130 251
3 137 141 254
3 141 256 254
3 255 142 253
3 142 138 253
3 141 145 256
3 145 258 256
3 257 146 255
3 146 142 255
3 145 149 258
3 149 259 258
3 259 150 257
3 150 146 257
3 149 150 259
