ply 
format ascii 1.0
comment object: Gripper_GripperLink1_After_3686ba3646a60e88d08fcc05e31a47ae8417e93c1
element vertex 504
property float x
property float y
property float z
property uchar red
property uchar green
property uchar blue
element face 1004
property list uchar int vertex_index
end_header
0.0075 0 -0.06 89 149 105
0.2175 0 -0.06 89 149 105
0.00632674 0 -0.0599077 89 149 105
0.218673 0 -0.0599077 89 149 105
0.00518237 0 -0.0596329 89 149 105
0.219818 0 -0.0596329 89 149 105
0.00409507 0 -0.0591826 89 149 105
0.220905 0 -0.0591826 89 149 105
0.00309161 0 -0.0585676 89 149 105
0.221908 0 -0.0585676 89 149 105
0.0021967 0 -0.0578033 89 149 105
0.222803 0 -0.0578033 89 149 105
0.00143237 0 -0.0569084 89 149 105
0.223568 0 -0.0569084 89 149 105
0.000817451 0 -0.0559049 89 149 105
0.224183 0 -0.0559049 89 149 105
0.000367076 0 -0.0548176 89 149 105
0.224633 0 -0.0548176 89 149 105
9.23374e-05 0 -0.0536733 89 149 105
0.224908 0 -0.0536733 89 149 105
0 0 -0.0525 89 149 105
0.225 0 -0.0525 89 149 105
0 0 -0.0075 89 149 105
0.225 0 -0.0075 89 149 105
9.23374e-05 0 -0.00632674 89 149 105
0.224908 0 -0.00632674 89 149 105
0.000367076 0 -0.00518237 89 149 105
0.224633 0 -0.00518237 89 149 105
0.000817451 0 -0.00409507 89 149 105
0.224183 0 -0.00409507 89 149 105
0.00143237 0 -0.00309161 89 149 105
0.223568 0 -0.00309161 89 149 105
0.0021967 0 -0.0021967 89 149 105
0.222803 0 -0.0021967 89 149 105
0.00309161 0 -0.00143237 89 149 105
0.221908 0 -0.00143237 89 149 105
0.00409507 0 -0.000817451 89 149 105
0.220905 0 -0.000817451 89 149 105
0.00518237 0 -0.000367076 89 149 105
0.219818 0 -0.000367076 89 149 105
0.00632674 0 -9.23374e-05 89 149 105
0.218673 0 -9.23374e-05 89 149 105
0.0075 0 0 89 149 105
0.2175 0 0 89 149 105
0.0075 0.0075 -0.0525 89 149 105
0.2175 0.0075 -0.0525 89 149 105
0.0075 0.0075 -0.0075 89 149 105
0.2175 0.0075 -0.0075 89 149 105
0.0075 0.0525 -0.06 89 149 105
0.2175 0.0525 -0.06 89 149 105
0.00632674 0.0525 -0.0599077 89 149 105
0.218673 0.0525 -0.0599077 89 149 105
0.00518237 0.0525 -0.0596329 89 149 105
0.219818 0.0525 -0.0596329 89 149 105
0.00409507 0.0525 -0.0591826 89 149 105
0.220905 0.0525 -0.0591826 89 149 105
0.00309161 0.0525 -0.0585676 89 149 105
0.221908 0.0525 -0.0585676 89 149 105
0.0021967 0.0525 -0.0578033 89 149 105
0.222803 0.0525 -0.0578033 89 149 105
0.00143237 0.0525 -0.0569084 89 149 105
0.223568 0.0525 -0.0569084 89 149 105
0.000817451 0.0525 -0.0559049 89 149 105
0.224183 0.0525 -0.0559049 89 149 105
0.000367076 0.0525 -0.0548176 89 149 105
0.224633 0.0525 -0.0548176 89 149 105
9.23374e-05 0.0525 -0.0536733 89 149 105
0.224908 0.0525 -0.0536733 89 149 105
0 0.0525 -0.0525 89 149 105
0.0075 0.0525 -0.0525 89 149 105
0.2175 0.0525 -0.0525 89 149 105
0.225 0.0525 -0.0525 89 149 105
0.015 0.0525 -0.04125 89 149 105
0.21 0.0525 -0.04125 89 149 105
0.015 0.0525 -0.01875 89 149 105
0.21 0.0525 -0.01875 89 149 105
0 0.0525 -0.0075 89 149 105
0.0075 0.0525 -0.0075 89 149 105
0.2175 0.0525 -0.0075 89 149 105
0.225 0.0525 -0.0075 89 149 105
9.23374e-05 0.0525 -0.00632674 89 149 105
0.224908 0.0525 -0.00632674 89 149 105
0.000367076 0.0525 -0.00518237 89 149 105
0.224633 0.0525 -0.00518237 89 149 105
0.000817451 0.0525 -0.00409507 89 149 105
0.224183 0.0525 -0.00409507 89 149 105
0.00143237 0.0525 -0.00309161 89 149 105
0.223568 0.0525 -0.00309161 89 149 105
0.0021967 0.0525 -0.0021967 89 149 105
0.222803 0.0525 -0.0021967 89 149 105
0.00309161 0.0525 -0.00143237 89 149 105
0.221908 0.0525 -0.00143237 89 149 105
0.00409507 0.0525 -0.000817451 89 149 105
0.220905 0.0525 -0.000817451 89 149 105
0.00518237 0.0525 -0.000367076 89 149 105
0.219818 0.0525 -0.000367076 89 149 105
0.00632674 0.0525 -9.23374e-05 89 149 105
0.218673 0.0525 -9.23374e-05 89 149 105
0.0075 0.0525 0 89 149 105
0.2175 0.0525 0 89 149 105
0.00634119 0.0526835 -0.0599077 89 149 105
0.218659 0.0526835 -0.0599077 89 149 105
0.00634119 0.0526835 -9.23374e-05 89 149 105
0.218659 0.0526835 -9.23374e-05 89 149 105
0.00638416 0.0528626 -0.0599077 89 149 105
0.218616 0.0528626 -0.0599077 89 149 105
0.00521091 0.0528626 -0.0596329 89 149 105
0.219789 0.0528626 -0.0596329 89 149 105
0.00521091 0.0528626 -0.000367076 89 149 105
0.219789 0.0528626 -0.000367076 89 149 105
0.00638416 0.0528626 -9.23374e-05 89 149 105
0.218616 0.0528626 -9.23374e-05 89 149 105
0.00645462 0.0530326 -0.0599077 89 149 105
0.218545 0.0530326 -0.0599077 89 149 105
0.00413699 0.0530326 -0.0591826 89 149 105
0.220863 0.0530326 -0.0591826 89 149 105
0.00413699 0.0530326 -0.000817451 89 149 105
0.220863 0.0530326 -0.000817451 89 149 105
0.00645462 0.0530326 -9.23374e-05 89 149 105
0.218545 0.0530326 -9.23374e-05 89 149 105
0.00655081 0.0531896 -0.0599077 89 149 105
0.218449 0.0531896 -0.0599077 89 149 105
0.00314588 0.0531896 -0.0585676 89 149 105
0.221854 0.0531896 -0.0585676 89 149 105
0.00314588 0.0531896 -0.00143237 89 149 105
0.221854 0.0531896 -0.00143237 89 149 105
0.00655081 0.0531896 -9.23374e-05 89 149 105
0.218449 0.0531896 -9.23374e-05 89 149 105
0.00529581 0.0532162 -0.0596329 89 149 105
0.219704 0.0532162 -0.0596329 89 149 105
0.00529581 0.0532162 -0.000367076 89 149 105
0.219704 0.0532162 -0.000367076 89 149 105
0.00667038 0.0533296 -0.0599077 89 149 105
0.21833 0.0533296 -0.0599077 89 149 105
0.00226199 0.0533296 -0.0578033 89 149 105
0.222738 0.0533296 -0.0578033 89 149 105
0.00226199 0.0533296 -0.0021967 89 149 105
0.222738 0.0533296 -0.0021967 89 149 105
0.00667038 0.0533296 -9.23374e-05 89 149 105
0.21833 0.0533296 -9.23374e-05 89 149 105
0.00681038 0.0534492 -0.0599077 89 149 105
0.21819 0.0534492 -0.0599077 89 149 105
0.00150708 0.0534492 -0.0569084 89 149 105
0.223493 0.0534492 -0.0569084 89 149 105
0.00150708 0.0534492 -0.00309161 89 149 105
0.223493 0.0534492 -0.00309161 89 149 105
0.00681038 0.0534492 -9.23374e-05 89 149 105
0.21819 0.0534492 -9.23374e-05 89 149 105
0.00696735 0.0535454 -0.0599077 89 149 105
0.218033 0.0535454 -0.0599077 89 149 105
0.000899724 0.0535454 -0.0559049 89 149 105
0.2241 0.0535454 -0.0559049 89 149 105
0.000899724 0.0535454 -0.00409507 89 149 105
0.2241 0.0535454 -0.00409507 89 149 105
0.00696735 0.0535454 -9.23374e-05 89 149 105
0.218033 0.0535454 -9.23374e-05 89 149 105
0.00543498 0.0535522 -0.0596329 89 149 105
0.219565 0.0535522 -0.0596329 89 149 105
0.00426172 0.0535522 -0.0591826 89 149 105
0.220738 0.0535522 -0.0591826 89 149 105
0.00426172 0.0535522 -0.000817451 89 149 105
0.220738 0.0535522 -0.000817451 89 149 105
0.00543498 0.0535522 -0.000367076 89 149 105
0.219565 0.0535522 -0.000367076 89 149 105
0.00713744 0.0536158 -0.0599077 89 149 105
0.217863 0.0536158 -0.0599077 89 149 105
0.000454894 0.0536158 -0.0548176 89 149 105
0.224545 0.0536158 -0.0548176 89 149 105
0.000454894 0.0536158 -0.00518237 89 149 105
0.224545 0.0536158 -0.00518237 89 149 105
0.00713744 0.0536158 -9.23374e-05 89 149 105
0.217863 0.0536158 -9.23374e-05 89 149 105
0.00731646 0.0536588 -0.0599077 89 149 105
0.217684 0.0536588 -0.0599077 89 149 105
0.000183538 0.0536588 -0.0536733 89 149 105
0.224816 0.0536588 -0.0536733 89 149 105
0.000183538 0.0536588 -0.00632674 89 149 105
0.224816 0.0536588 -0.00632674 89 149 105
0.00731646 0.0536588 -9.23374e-05 89 149 105
0.217684 0.0536588 -9.23374e-05 89 149 105
0.0075 0.0536733 -0.0599077 89 149 105
0.2175 0.0536733 -0.0599077 89 149 105
9.23374e-05 0.0536733 -0.0525 89 149 105
0.224908 0.0536733 -0.0525 89 149 105
9.23374e-05 0.0536733 -0.0075 89 149 105
0.224908 0.0536733 -0.0075 89 149 105
0.0075 0.0536733 -9.23374e-05 89 149 105
0.2175 0.0536733 -9.23374e-05 89 149 105
0.005625 0.0538623 -0.0596329 89 149 105
0.219375 0.0538623 -0.0596329 89 149 105
0.00330737 0.0538623 -0.0585676 89 149 105
0.221693 0.0538623 -0.0585676 89 149 105
0.00330737 0.0538623 -0.00143237 89 149 105
0.221693 0.0538623 -0.00143237 89 149 105
0.005625 0.0538623 -0.000367076 89 149 105
0.219375 0.0538623 -0.000367076 89 149 105
0.00446619 0.0540458 -0.0591826 89 149 105
0.220534 0.0540458 -0.0591826 89 149 105
0.00446619 0.0540458 -0.000817451 89 149 105
0.220534 0.0540458 -0.000817451 89 149 105
0.00586119 0.0541388 -0.0596329 89 149 105
0.219139 0.0541388 -0.0596329 89 149 105
0.00245626 0.0541388 -0.0578033 89 149 105
0.222544 0.0541388 -0.0578033 89 149 105
0.00245626 0.0541388 -0.0021967 89 149 105
0.222544 0.0541388 -0.0021967 89 149 105
0.00586119 0.0541388 -0.000367076 89 149 105
0.219139 0.0541388 -0.000367076 89 149 105
0.00613773 0.054375 -0.0596329 89 149 105
0.218862 0.054375 -0.0596329 89 149 105
0.00172934 0.054375 -0.0569084 89 149 105
0.223271 0.054375 -0.0569084 89 149 105
0.00172934 0.054375 -0.00309161 89 149 105
0.223271 0.054375 -0.00309161 89 149 105
0.00613773 0.054375 -0.000367076 89 149 105
0.218862 0.054375 -0.000367076 89 149 105
0.00474535 0.0545014 -0.0591826 89 149 105
0.220255 0.0545014 -0.0591826 89 149 105
0.0035721 0.0545014 -0.0585676 89 149 105
0.221428 0.0545014 -0.0585676 89 149 105
0.0035721 0.0545014 -0.00143237 89 149 105
0.221428 0.0545014 -0.00143237 89 149 105
0.00474535 0.0545014 -0.000817451 89 149 105
0.220255 0.0545014 -0.000817451 89 149 105
0.00644782 0.054565 -0.0596329 89 149 105
0.218552 0.054565 -0.0596329 89 149 105
0.00114452 0.054565 -0.0559049 89 149 105
0.223855 0.054565 -0.0559049 89 149 105
0.00114452 0.054565 -0.00409507 89 149 105
0.223855 0.054565 -0.00409507 89 149 105
0.00644782 0.054565 -0.000367076 89 149 105
0.218552 0.054565 -0.000367076 89 149 105
0.00678381 0.0547042 -0.0596329 89 149 105
0.218216 0.0547042 -0.0596329 89 149 105
0.000716186 0.0547042 -0.0548176 89 149 105
0.224284 0.0547042 -0.0548176 89 149 105
0.000716186 0.0547042 -0.00518237 89 149 105
0.224284 0.0547042 -0.00518237 89 149 105
0.00678381 0.0547042 -0.000367076 89 149 105
0.218216 0.0547042 -0.000367076 89 149 105
0.00713744 0.0547891 -0.0596329 89 149 105
0.217863 0.0547891 -0.0596329 89 149 105
0.000454894 0.0547891 -0.0536733 89 149 105
0.224545 0.0547891 -0.0536733 89 149 105
0.000454894 0.0547891 -0.00632674 89 149 105
0.224545 0.0547891 -0.00632674 89 149 105
0.00713744 0.0547891 -0.000367076 89 149 105
0.217863 0.0547891 -0.000367076 89 149 105
0.0075 0.0548176 -0.0596329 89 149 105
0.2175 0.0548176 -0.0596329 89 149 105
0.000367076 0.0548176 -0.0525 89 149 105
0.224633 0.0548176 -0.0525 89 149 105
0.000367076 0.0548176 -0.0075 89 149 105
0.224633 0.0548176 -0.0075 89 149 105
0.0075 0.0548176 -0.000367076 89 149 105
0.2175 0.0548176 -0.000367076 89 149 105
0.00509235 0.0549076 -0.0591826 89 149 105
0.219908 0.0549076 -0.0591826 89 149 105
0.00277472 0.0549076 -0.0578033 89 149 105
0.222225 0.0549076 -0.0578033 89 149 105
0.00277472 0.0549076 -0.0021967 89 149 105
0.222225 0.0549076 -0.0021967 89 149 105
0.00509235 0.0549076 -0.000817451 89 149 105
0.219908 0.0549076 -0.000817451 89 149 105
0.00393354 0.0550912 -0.0585676 89 149 105
0.221066 0.0550912 -0.0585676 89 149 105
0.00393354 0.0550912 -0.00143237 89 149 105
0.221066 0.0550912 -0.00143237 89 149 105
0.00549863 0.0552546 -0.0591826 89 149 105
0.219501 0.0552546 -0.0591826 89 149 105
0.0020937 0.0552546 -0.0569084 89 149 105
0.222906 0.0552546 -0.0569084 89 149 105
0.0020937 0.0552546 -0.00309161 89 149 105
0.222906 0.0552546 -0.00309161 89 149 105
0.00549863 0.0552546 -0.000817451 89 149 105
0.219501 0.0552546 -0.000817451 89 149 105
0.00595419 0.0555338 -0.0591826 89 149 105
0.219046 0.0555338 -0.0591826 89 149 105
0.00154581 0.0555338 -0.0559049 89 149 105
0.223454 0.0555338 -0.0559049 89 149 105
0.00154581 0.0555338 -0.00409507 89 149 105
0.223454 0.0555338 -0.00409507 89 149 105
0.00595419 0.0555338 -0.000817451 89 149 105
0.219046 0.0555338 -0.000817451 89 149 105
0.0043828 0.0556172 -0.0585676 89 149 105
0.220617 0.0556172 -0.0585676 89 149 105
0.00320954 0.0556172 -0.0578033 89 149 105
0.22179 0.0556172 -0.0578033 89 149 105
0.00320954 0.0556172 -0.0021967 89 149 105
0.22179 0.0556172 -0.0021967 89 149 105
0.0043828 0.0556172 -0.00143237 89 149 105
0.220617 0.0556172 -0.00143237 89 149 105
0.00644782 0.0557383 -0.0591826 89 149 105
0.218552 0.0557383 -0.0591826 89 149 105
0.00114452 0.0557383 -0.0548176 89 149 105
0.223855 0.0557383 -0.0548176 89 149 105
0.00114452 0.0557383 -0.00518237 89 149 105
0.223855 0.0557383 -0.00518237 89 149 105
0.00644782 0.0557383 -0.000817451 89 149 105
0.218552 0.0557383 -0.000817451 89 149 105
0.00696735 0.055863 -0.0591826 89 149 105
0.218033 0.055863 -0.0591826 89 149 105
0.000899724 0.055863 -0.0536733 89 149 105
0.2241 0.055863 -0.0536733 89 149 105
0.000899724 0.055863 -0.00632674 89 149 105
0.2241 0.055863 -0.00632674 89 149 105
0.00696735 0.055863 -0.000817451 89 149 105
0.218033 0.055863 -0.000817451 89 149 105
0.0075 0.0559049 -0.0591826 89 149 105
0.2175 0.0559049 -0.0591826 89 149 105
0.000817451 0.0559049 -0.0525 89 149 105
0.224183 0.0559049 -0.0525 89 149 105
0.000817451 0.0559049 -0.0075 89 149 105
0.224183 0.0559049 -0.0075 89 149 105
0.0075 0.0559049 -0.000817451 89 149 105
0.2175 0.0559049 -0.000817451 89 149 105
0.00490881 0.0560665 -0.0585676 89 149 105
0.220091 0.0560665 -0.0585676 89 149 105
0.00259119 0.0560665 -0.0569084 89 149 105
0.222409 0.0560665 -0.0569084 89 149 105
0.00259119 0.0560665 -0.00309161 89 149 105
0.222409 0.0560665 -0.00309161 89 149 105
0.00490881 0.0560665 -0.00143237 89 149 105
0.220091 0.0560665 -0.00143237 89 149 105
0.00375 0.05625 -0.0578033 89 149 105
0.22125 0.05625 -0.0578033 89 149 105
0.00375 0.05625 -0.0021967 89 149 105
0.22125 0.05625 -0.0021967 89 149 105
0.00549863 0.0564279 -0.0585676 89 149 105
0.219501 0.0564279 -0.0585676 89 149 105
0.0020937 0.0564279 -0.0559049 89 149 105
0.222906 0.0564279 -0.0559049 89 149 105
0.0020937 0.0564279 -0.00409507 89 149 105
0.222906 0.0564279 -0.00409507 89 149 105
0.00549863 0.0564279 -0.00143237 89 149 105
0.219501 0.0564279 -0.00143237 89 149 105
0.00613773 0.0566926 -0.0585676 89 149 105
0.218862 0.0566926 -0.0585676 89 149 105
0.00172934 0.0566926 -0.0548176 89 149 105
0.223271 0.0566926 -0.0548176 89 149 105
0.00172934 0.0566926 -0.00518237 89 149 105
0.223271 0.0566926 -0.00518237 89 149 105
0.00613773 0.0566926 -0.00143237 89 149 105
0.218862 0.0566926 -0.00143237 89 149 105
0.0043828 0.0567905 -0.0578033 89 149 105
0.220617 0.0567905 -0.0578033 89 149 105
0.00320954 0.0567905 -0.0569084 89 149 105
0.22179 0.0567905 -0.0569084 89 149 105
0.00320954 0.0567905 -0.00309161 89 149 105
0.22179 0.0567905 -0.00309161 89 149 105
0.0043828 0.0567905 -0.0021967 89 149 105
0.220617 0.0567905 -0.0021967 89 149 105
0.00681038 0.0568541 -0.0585676 89 149 105
0.21819 0.0568541 -0.0585676 89 149 105
0.00150708 0.0568541 -0.0536733 89 149 105
0.223493 0.0568541 -0.0536733 89 149 105
0.00150708 0.0568541 -0.00632674 89 149 105
0.223493 0.0568541 -0.00632674 89 149 105
0.00681038 0.0568541 -0.00143237 89 149 105
0.21819 0.0568541 -0.00143237 89 149 105
0.0075 0.0569084 -0.0585676 89 149 105
0.2175 0.0569084 -0.0585676 89 149 105
0.00143237 0.0569084 -0.0525 89 149 105
0.223568 0.0569084 -0.0525 89 149 105
0.00143237 0.0569084 -0.0075 89 149 105
0.223568 0.0569084 -0.0075 89 149 105
0.0075 0.0569084 -0.00143237 89 149 105
0.2175 0.0569084 -0.00143237 89 149 105
0.00509235 0.0572253 -0.0578033 89 149 105
0.219908 0.0572253 -0.0578033 89 149 105
0.00277472 0.0572253 -0.0559049 89 149 105
0.222225 0.0572253 -0.0559049 89 149 105
0.00277472 0.0572253 -0.00409507 89 149 105
0.222225 0.0572253 -0.00409507 89 149 105
0.00509235 0.0572253 -0.0021967 89 149 105
0.219908 0.0572253 -0.0021967 89 149 105
0.00393354 0.0574088 -0.0569084 89 149 105
0.221066 0.0574088 -0.0569084 89 149 105
0.00393354 0.0574088 -0.00309161 89 149 105
0.221066 0.0574088 -0.00309161 89 149 105
0.00586119 0.0575437 -0.0578033 89 149 105
0.219139 0.0575437 -0.0578033 89 149 105
0.00245626 0.0575437 -0.0548176 89 149 105
0.222544 0.0575437 -0.0548176 89 149 105
0.00245626 0.0575437 -0.00518237 89 149 105
0.222544 0.0575437 -0.00518237 89 149 105
0.00586119 0.0575437 -0.0021967 89 149 105
0.219139 0.0575437 -0.0021967 89 149 105
0.00667038 0.057738 -0.0578033 89 149 105
0.21833 0.057738 -0.0578033 89 149 105
0.00226199 0.057738 -0.0536733 89 149 105
0.222738 0.057738 -0.0536733 89 149 105
0.00226199 0.057738 -0.00632674 89 149 105
0.222738 0.057738 -0.00632674 89 149 105
0.00667038 0.057738 -0.0021967 89 149 105
0.21833 0.057738 -0.0021967 89 149 105
0.0075 0.0578033 -0.0578033 89 149 105
0.2175 0.0578033 -0.0578033 89 149 105
0.0021967 0.0578033 -0.0525 89 149 105
0.222803 0.0578033 -0.0525 89 149 105
0.0021967 0.0578033 -0.0075 89 149 105
0.222803 0.0578033 -0.0075 89 149 105
0.0075 0.0578033 -0.0021967 89 149 105
0.2175 0.0578033 -0.0021967 89 149 105
0.00474535 0.0579063 -0.0569084 89 149 105
0.220255 0.0579063 -0.0569084 89 149 105
0.0035721 0.0579063 -0.0559049 89 149 105
0.221428 0.0579063 -0.0559049 89 149 105
0.0035721 0.0579063 -0.00409507 89 149 105
0.221428 0.0579063 -0.00409507 89 149 105
0.00474535 0.0579063 -0.00309161 89 149 105
0.220255 0.0579063 -0.00309161 89 149 105
0.005625 0.0582707 -0.0569084 89 149 105
0.219375 0.0582707 -0.0569084 89 149 105
0.00330737 0.0582707 -0.0548176 89 149 105
0.221693 0.0582707 -0.0548176 89 149 105
0.00330737 0.0582707 -0.00518237 89 149 105
0.221693 0.0582707 -0.00518237 89 149 105
0.005625 0.0582707 -0.00309161 89 149 105
0.219375 0.0582707 -0.00309161 89 149 105
0.00446619 0.0584542 -0.0559049 89 149 105
0.220534 0.0584542 -0.0559049 89 149 105
0.00446619 0.0584542 -0.00409507 89 149 105
0.220534 0.0584542 -0.00409507 89 149 105
0.00655081 0.0584929 -0.0569084 89 149 105
0.218449 0.0584929 -0.0569084 89 149 105
0.00314588 0.0584929 -0.0536733 89 149 105
0.221854 0.0584929 -0.0536733 89 149 105
0.00314588 0.0584929 -0.00632674 89 149 105
0.221854 0.0584929 -0.00632674 89 149 105
0.00655081 0.0584929 -0.00309161 89 149 105
0.218449 0.0584929 -0.00309161 89 149 105
0.0075 0.0585676 -0.0569084 89 149 105
0.2175 0.0585676 -0.0569084 89 149 105
0.00309161 0.0585676 -0.0525 89 149 105
0.221908 0.0585676 -0.0525 89 149 105
0.00309161 0.0585676 -0.0075 89 149 105
0.221908 0.0585676 -0.0075 89 149 105
0.0075 0.0585676 -0.00309161 89 149 105
0.2175 0.0585676 -0.00309161 89 149 105
0.00543498 0.0588555 -0.0559049 89 149 105
0.219565 0.0588555 -0.0559049 89 149 105
0.00426172 0.0588555 -0.0548176 89 149 105
0.220738 0.0588555 -0.0548176 89 149 105
0.00426172 0.0588555 -0.00518237 89 149 105
0.220738 0.0588555 -0.00518237 89 149 105
0.00543498 0.0588555 -0.00409507 89 149 105
0.219565 0.0588555 -0.00409507 89 149 105
0.00645462 0.0591003 -0.0559049 89 149 105
0.218545 0.0591003 -0.0559049 89 149 105
0.00413699 0.0591003 -0.0536733 89 149 105
0.220863 0.0591003 -0.0536733 89 149 105
0.00413699 0.0591003 -0.00632674 89 149 105
0.220863 0.0591003 -0.00632674 89 149 105
0.00645462 0.0591003 -0.00409507 89 149 105
0.218545 0.0591003 -0.00409507 89 149 105
0.0075 0.0591826 -0.0559049 89 149 105
0.2175 0.0591826 -0.0559049 89 149 105
0.00409507 0.0591826 -0.0525 89 149 105
0.220905 0.0591826 -0.0525 89 149 105
0.00409507 0.0591826 -0.0075 89 149 105
0.220905 0.0591826 -0.0075 89 149 105
0.0075 0.0591826 -0.00409507 89 149 105
0.2175 0.0591826 -0.00409507 89 149 105
0.00529581 0.0592838 -0.0548176 89 149 105
0.219704 0.0592838 -0.0548176 89 149 105
0.00529581 0.0592838 -0.00518237 89 149 105
0.219704 0.0592838 -0.00518237 89 149 105
0.00638416 0.0595451 -0.0548176 89 149 105
0.218616 0.0595451 -0.0548176 89 149 105
0.00521091 0.0595451 -0.0536733 89 149 105
0.219789 0.0595451 -0.0536733 89 149 105
0.00521091 0.0595451 -0.00632674 89 149 105
0.219789 0.0595451 -0.00632674 89 149 105
0.00638416 0.0595451 -0.00518237 89 149 105
0.218616 0.0595451 -0.00518237 89 149 105
0.0075 0.0596329 -0.0548176 89 149 105
0.2175 0.0596329 -0.0548176 89 149 105
0.00518237 0.0596329 -0.0525 89 149 105
0.219818 0.0596329 -0.0525 89 149 105
0.00518237 0.0596329 -0.0075 89 149 105
0.219818 0.0596329 -0.0075 89 149 105
0.0075 0.0596329 -0.00518237 89 149 105
0.2175 0.0596329 -0.00518237 89 149 105
0.00634119 0.0598165 -0.0536733 89 149 105
0.218659 0.0598165 -0.0536733 89 149 105
0.00634119 0.0598165 -0.00632674 89 149 105
0.218659 0.0598165 -0.00632674 89 149 105
0.0075 0.0599077 -0.0536733 89 149 105
0.2175 0.0599077 -0.0536733 89 149 105
0.00632674 0.0599077 -0.0525 89 149 105
0.218673 0.0599077 -0.0525 89 149 105
0.00632674 0.0599077 -0.0075 89 149 105
0.218673 0.0599077 -0.0075 89 149 105
0.0075 0.0599077 -0.00632674 89 149 105
0.2175 0.0599077 -0.00632674 89 149 105
0.0075 0.06 -0.0525 89 149 105
0.2175 0.06 -0.0525 89 149 105
0.015 0.06 -0.04125 89 149 105
0.21 0.06 -0.04125 89 149 105
0.015 0.06 -0.01875 89 149 105
0.21 0.06 -0.01875 89 149 105
0.0075 0.06 -0.0075 89 149 105
0.2175 0.06 -0.0075 89 149 105
3 49 1 0
3 48 49 0
3 1 20 0
3 20 2 0
3 2 48 0
3 19 21 1
3 43 22 1
3 22 20 1
3 11 13 1
3 21 43 1
3 3 5 1
3 13 15 1
3 15 17 1
3 17 19 1
3 5 7 1
3 7 9 1
3 9 11 1
3 49 51 1
3 51 3 1
3 20 4 2
3 50 48 2
3 4 50 2
3 51 53 3
3 53 5 3
3 20 6 4
3 52 50 4
3 6 52 4
3 53 55 5
3 55 7 5
3 20 18 6
3 18 16 6
3 16 14 6
3 14 12 6
3 12 10 6
3 10 8 6
3 54 52 6
3 8 54 6
3 55 57 7
3 57 9 7
3 56 54 8
3 10 56 8
3 57 59 9
3 59 11 9
3 58 56 10
3 12 58 10
3 59 61 11
3 61 13 11
3 60 58 12
3 14 60 12
3 61 63 13
3 63 15 13
3 62 60 14
3 16 62 14
3 63 65 15
3 65 17 15
3 64 62 16
3 18 64 16
3 65 67 17
3 67 19 17
3 66 64 18
3 20 66 18
3 67 71 19
3 71 21 19
3 22 68 20
3 68 66 20
3 79 23 21
3 71 79 21
3 23 43 21
3 76 68 22
3 43 42 22
3 42 40 22
3 40 38 22
3 38 36 22
3 36 34 22
3 34 32 22
3 32 30 22
3 30 24 22
3 24 76 22
3 25 43 23
3 81 25 23
3 79 81 23
3 30 26 24
3 26 80 24
3 80 76 24
3 27 43 25
3 83 27 25
3 81 83 25
3 30 28 26
3 28 82 26
3 82 80 26
3 29 43 27
3 85 29 27
3 83 85 27
3 30 84 28
3 84 82 28
3 31 43 29
3 87 31 29
3 85 87 29
3 32 86 30
3 86 84 30
3 33 43 31
3 89 33 31
3 87 89 31
3 34 88 32
3 88 86 32
3 35 43 33
3 91 35 33
3 89 91 33
3 36 90 34
3 90 88 34
3 37 43 35
3 93 37 35
3 91 93 35
3 38 92 36
3 92 90 36
3 39 43 37
3 95 39 37
3 93 95 37
3 40 94 38
3 94 92 38
3 41 43 39
3 97 41 39
3 95 97 39
3 42 96 40
3 96 94 40
3 99 43 41
3 97 99 41
3 43 98 42
3 98 96 42
3 99 98 43
3 70 69 44
3 45 70 44
3 69 46 44
3 46 45 44
3 78 70 45
3 47 78 45
3 46 47 45
3 78 47 46
3 77 78 46
3 69 77 46
3 180 49 48
3 50 100 48
3 104 112 48
3 112 120 48
3 100 104 48
3 132 140 48
3 140 148 48
3 120 132 48
3 164 172 48
3 172 180 48
3 148 164 48
3 180 181 49
3 181 173 49
3 165 149 49
3 149 141 49
3 173 165 49
3 133 121 49
3 121 113 49
3 141 133 49
3 105 101 49
3 101 51 49
3 113 105 49
3 52 106 50
3 106 100 50
3 101 53 51
3 54 114 52
3 114 106 52
3 107 55 53
3 101 107 53
3 56 122 54
3 122 114 54
3 115 57 55
3 107 115 55
3 58 134 56
3 134 122 56
3 123 59 57
3 115 123 57
3 60 142 58
3 142 134 58
3 135 61 59
3 123 135 59
3 62 150 60
3 150 142 60
3 143 63 61
3 135 143 61
3 64 166 62
3 166 150 62
3 151 65 63
3 143 151 63
3 66 174 64
3 174 166 64
3 167 67 65
3 151 167 65
3 68 182 66
3 182 174 66
3 175 71 67
3 167 175 67
3 184 182 68
3 76 184 68
3 73 72 69
3 70 73 69
3 72 77 69
3 75 73 70
3 78 75 70
3 183 79 71
3 175 183 71
3 74 77 72
3 498 74 72
3 73 499 72
3 499 498 72
3 75 499 73
3 75 78 74
3 78 77 74
3 498 500 74
3 500 501 74
3 501 75 74
3 501 499 75
3 80 176 76
3 176 184 76
3 183 185 79
3 185 81 79
3 168 176 80
3 82 168 80
3 177 83 81
3 185 177 81
3 84 152 82
3 152 168 82
3 169 85 83
3 177 169 83
3 86 144 84
3 144 152 84
3 153 87 85
3 169 153 85
3 88 136 86
3 136 144 86
3 145 89 87
3 153 145 87
3 90 124 88
3 124 136 88
3 137 91 89
3 145 137 89
3 92 116 90
3 116 124 90
3 125 93 91
3 137 125 91
3 94 108 92
3 108 116 92
3 117 95 93
3 125 117 93
3 96 102 94
3 102 108 94
3 109 97 95
3 117 109 95
3 98 102 96
3 103 99 97
3 109 103 97
3 187 186 98
3 99 187 98
3 186 178 98
3 154 146 98
3 146 138 98
3 138 126 98
3 126 118 98
3 118 110 98
3 110 102 98
3 178 170 98
3 170 154 98
3 119 127 99
3 127 139 99
3 139 147 99
3 147 155 99
3 155 171 99
3 171 179 99
3 179 187 99
3 103 111 99
3 111 119 99
3 106 128 100
3 128 104 100
3 105 107 101
3 110 108 102
3 131 111 103
3 109 131 103
3 128 156 104
3 156 112 104
3 129 107 105
3 113 129 105
3 114 158 106
3 158 128 106
3 129 115 107
3 110 130 108
3 130 116 108
3 161 131 109
3 117 161 109
3 118 130 110
3 131 163 111
3 163 119 111
3 156 188 112
3 188 120 112
3 121 157 113
3 157 129 113
3 122 190 114
3 190 158 114
3 159 123 115
3 129 159 115
3 130 160 116
3 160 124 116
3 193 161 117
3 125 193 117
3 126 162 118
3 162 130 118
3 195 127 119
3 163 195 119
3 188 200 120
3 200 132 120
3 133 189 121
3 189 157 121
3 134 202 122
3 202 190 122
3 191 135 123
3 159 191 123
3 160 192 124
3 192 136 124
3 205 193 125
3 137 205 125
3 138 194 126
3 194 162 126
3 207 139 127
3 195 207 127
3 158 196 128
3 196 156 128
3 157 159 129
3 162 160 130
3 199 163 131
3 161 199 131
3 200 208 132
3 208 140 132
3 201 189 133
3 141 201 133
3 142 210 134
3 210 202 134
3 203 143 135
3 191 203 135
3 192 204 136
3 204 144 136
3 213 205 137
3 145 213 137
3 146 206 138
3 206 194 138
3 215 147 139
3 207 215 139
3 208 224 140
3 224 148 140
3 149 209 141
3 209 201 141
3 150 226 142
3 226 210 142
3 211 151 143
3 203 211 143
3 204 212 144
3 212 152 144
3 229 213 145
3 153 229 145
3 154 214 146
3 214 206 146
3 231 155 147
3 215 231 147
3 224 232 148
3 232 164 148
3 165 225 149
3 225 209 149
3 166 234 150
3 234 226 150
3 227 167 151
3 211 227 151
3 228 168 152
3 212 228 152
3 237 229 153
3 169 237 153
3 230 214 154
3 170 230 154
3 239 171 155
3 231 239 155
3 196 216 156
3 216 188 156
3 189 197 157
3 197 159 157
3 190 218 158
3 218 196 158
3 197 191 159
3 162 198 160
3 198 192 160
3 221 199 161
3 193 221 161
3 194 198 162
3 199 223 163
3 223 195 163
3 232 240 164
3 240 172 164
3 233 225 165
3 173 233 165
3 174 242 166
3 242 234 166
3 235 175 167
3 227 235 167
3 228 236 168
3 236 176 168
3 245 237 169
3 177 245 169
3 238 230 170
3 178 238 170
3 247 179 171
3 239 247 171
3 240 248 172
3 248 180 172
3 181 241 173
3 241 233 173
3 182 250 174
3 250 242 174
3 243 183 175
3 235 243 175
3 236 244 176
3 244 184 176
3 253 245 177
3 185 253 177
3 246 238 178
3 186 246 178
3 255 187 179
3 247 255 179
3 248 181 180
3 248 249 181
3 249 241 181
3 252 250 182
3 184 252 182
3 251 185 183
3 243 251 183
3 244 252 184
3 251 253 185
3 255 254 186
3 187 255 186
3 254 246 186
3 216 256 188
3 256 200 188
3 201 217 189
3 217 197 189
3 202 258 190
3 258 218 190
3 219 203 191
3 197 219 191
3 198 220 192
3 220 204 192
3 261 221 193
3 205 261 193
3 206 222 194
3 222 198 194
3 263 207 195
3 223 263 195
3 218 264 196
3 264 216 196
3 217 219 197
3 222 220 198
3 267 223 199
3 221 267 199
3 256 268 200
3 268 208 200
3 257 217 201
3 209 257 201
3 210 270 202
3 270 258 202
3 259 211 203
3 219 259 203
3 220 260 204
3 260 212 204
3 273 261 205
3 213 273 205
3 214 262 206
3 262 222 206
3 275 215 207
3 263 275 207
3 268 276 208
3 276 224 208
3 225 269 209
3 269 257 209
3 226 278 210
3 278 270 210
3 271 227 211
3 259 271 211
3 272 228 212
3 260 272 212
3 281 273 213
3 229 281 213
3 274 262 214
3 230 274 214
3 283 231 215
3 275 283 215
3 264 284 216
3 284 256 216
3 257 265 217
3 265 219 217
3 258 286 218
3 286 264 218
3 265 259 219
3 222 266 220
3 266 260 220
3 289 267 221
3 261 289 221
3 262 266 222
3 267 291 223
3 291 263 223
3 276 292 224
3 292 232 224
3 233 277 225
3 277 269 225
3 234 294 226
3 294 278 226
3 279 235 227
3 271 279 227
3 272 280 228
3 280 236 228
3 297 281 229
3 237 297 229
3 282 274 230
3 238 282 230
3 299 239 231
3 283 299 231
3 292 300 232
3 300 240 232
3 293 277 233
3 241 293 233
3 242 302 234
3 302 294 234
3 295 243 235
3 279 295 235
3 280 296 236
3 296 244 236
3 305 297 237
3 245 305 237
3 298 282 238
3 246 298 238
3 307 247 239
3 299 307 239
3 300 308 240
3 308 248 240
3 249 301 241
3 301 293 241
3 250 310 242
3 310 302 242
3 303 251 243
3 295 303 243
3 296 304 244
3 304 252 244
3 313 305 245
3 253 313 245
3 306 298 246
3 254 306 246
3 315 255 247
3 307 315 247
3 308 249 248
3 308 309 249
3 309 301 249
3 312 310 250
3 252 312 250
3 311 253 251
3 303 311 251
3 304 312 252
3 311 313 253
3 315 314 254
3 255 315 254
3 314 306 254
3 284 316 256
3 316 268 256
3 285 265 257
3 269 285 257
3 270 318 258
3 318 286 258
3 287 271 259
3 265 287 259
3 288 272 260
3 266 288 260
3 321 289 261
3 273 321 261
3 290 266 262
3 274 290 262
3 323 275 263
3 291 323 263
3 286 324 264
3 324 284 264
3 285 287 265
3 290 288 266
3 327 291 267
3 289 327 267
3 316 328 268
3 328 276 268
3 277 317 269
3 317 285 269
3 278 330 270
3 330 318 270
3 319 279 271
3 287 319 271
3 288 320 272
3 320 280 272
3 333 321 273
3 281 333 273
3 322 290 274
3 282 322 274
3 335 283 275
3 323 335 275
3 328 336 276
3 336 292 276
3 293 329 277
3 329 317 277
3 294 338 278
3 338 330 278
3 331 295 279
3 319 331 279
3 320 332 280
3 332 296 280
3 341 333 281
3 297 341 281
3 334 322 282
3 298 334 282
3 343 299 283
3 335 343 283
3 324 344 284
3 344 316 284
3 325 287 285
3 317 325 285
3 318 346 286
3 346 324 286
3 325 319 287
3 290 326 288
3 326 320 288
3 349 327 289
3 321 349 289
3 322 326 290
3 327 351 291
3 351 323 291
3 336 352 292
3 352 300 292
3 337 329 293
3 301 337 293
3 302 354 294
3 354 338 294
3 339 303 295
3 331 339 295
3 332 340 296
3 340 304 296
3 357 341 297
3 305 357 297
3 342 334 298
3 306 342 298
3 359 307 299
3 343 359 299
3 352 360 300
3 360 308 300
3 309 353 301
3 353 337 301
3 310 362 302
3 362 354 302
3 355 311 303
3 339 355 303
3 340 356 304
3 356 312 304
3 365 357 305
3 313 365 305
3 358 342 306
3 314 358 306
3 367 315 307
3 359 367 307
3 360 309 308
3 360 361 309
3 361 353 309
3 364 362 310
3 312 364 310
3 363 313 311
3 355 363 311
3 356 364 312
3 363 365 313
3 367 366 314
3 315 367 314
3 366 358 314
3 344 368 316
3 368 328 316
3 329 345 317
3 345 325 317
3 330 370 318
3 370 346 318
3 347 331 319
3 325 347 319
3 326 348 320
3 348 332 320
3 373 349 321
3 333 373 321
3 350 326 322
3 334 350 322
3 375 335 323
3 351 375 323
3 346 376 324
3 376 344 324
3 345 347 325
3 350 348 326
3 379 351 327
3 349 379 327
3 368 380 328
3 380 336 328
3 337 369 329
3 369 345 329
3 338 382 330
3 382 370 330
3 371 339 331
3 347 371 331
3 348 372 332
3 372 340 332
3 385 373 333
3 341 385 333
3 374 350 334
3 342 374 334
3 387 343 335
3 375 387 335
3 380 388 336
3 388 352 336
3 381 369 337
3 353 381 337
3 354 390 338
3 390 382 338
3 383 355 339
3 371 383 339
3 372 384 340
3 384 356 340
3 393 385 341
3 357 393 341
3 386 374 342
3 358 386 342
3 395 359 343
3 387 395 343
3 376 404 344
3 404 368 344
3 369 377 345
3 377 347 345
3 370 406 346
3 406 376 346
3 377 371 347
3 350 378 348
3 378 372 348
3 409 379 349
3 373 409 349
3 374 378 350
3 379 411 351
3 411 375 351
3 388 396 352
3 396 360 352
3 361 389 353
3 389 381 353
3 362 398 354
3 398 390 354
3 391 363 355
3 383 391 355
3 384 392 356
3 392 364 356
3 401 393 357
3 365 401 357
3 394 386 358
3 366 394 358
3 403 367 359
3 395 403 359
3 396 361 360
3 396 397 361
3 397 389 361
3 400 398 362
3 364 400 362
3 399 365 363
3 391 399 363
3 392 400 364
3 399 401 365
3 403 402 366
3 367 403 366
3 402 394 366
3 404 412 368
3 412 380 368
3 381 405 369
3 405 377 369
3 382 414 370
3 414 406 370
3 407 383 371
3 377 407 371
3 378 408 372
3 408 384 372
3 417 409 373
3 385 417 373
3 410 378 374
3 386 410 374
3 419 387 375
3 411 419 375
3 406 420 376
3 420 404 376
3 405 407 377
3 410 408 378
3 423 411 379
3 409 423 379
3 412 424 380
3 424 388 380
3 413 405 381
3 389 413 381
3 390 426 382
3 426 414 382
3 415 391 383
3 407 415 383
3 408 416 384
3 416 392 384
3 429 417 385
3 393 429 385
3 418 410 386
3 394 418 386
3 431 395 387
3 419 431 387
3 424 432 388
3 432 396 388
3 397 425 389
3 425 413 389
3 398 434 390
3 434 426 390
3 427 399 391
3 415 427 391
3 416 428 392
3 428 400 392
3 437 429 393
3 401 437 393
3 430 418 394
3 402 430 394
3 439 403 395
3 431 439 395
3 432 397 396
3 432 433 397
3 433 425 397
3 436 434 398
3 400 436 398
3 435 401 399
3 427 435 399
3 428 436 400
3 435 437 401
3 439 438 402
3 403 439 402
3 438 430 402
3 420 440 404
3 440 412 404
3 413 421 405
3 421 407 405
3 414 442 406
3 442 420 406
3 421 415 407
3 410 422 408
3 422 416 408
3 445 423 409
3 417 445 409
3 418 422 410
3 423 447 411
3 447 419 411
3 440 448 412
3 448 424 412
3 441 421 413
3 425 441 413
3 426 450 414
3 450 442 414
3 443 427 415
3 421 443 415
3 422 444 416
3 444 428 416
3 453 445 417
3 429 453 417
3 446 422 418
3 430 446 418
3 455 431 419
3 447 455 419
3 442 464 420
3 464 440 420
3 441 443 421
3 446 444 422
3 467 447 423
3 445 467 423
3 448 456 424
3 456 432 424
3 433 449 425
3 449 441 425
3 434 458 426
3 458 450 426
3 451 435 427
3 443 451 427
3 444 452 428
3 452 436 428
3 461 453 429
3 437 461 429
3 454 446 430
3 438 454 430
3 463 439 431
3 455 463 431
3 456 433 432
3 456 457 433
3 457 449 433
3 460 458 434
3 436 460 434
3 459 437 435
3 451 459 435
3 452 460 436
3 459 461 437
3 463 462 438
3 439 463 438
3 462 454 438
3 464 468 440
3 468 448 440
3 465 443 441
3 449 465 441
3 450 470 442
3 470 464 442
3 465 451 443
3 446 466 444
3 466 452 444
3 473 467 445
3 453 473 445
3 454 466 446
3 467 475 447
3 475 455 447
3 468 476 448
3 476 456 448
3 457 469 449
3 469 465 449
3 458 478 450
3 478 470 450
3 471 459 451
3 465 471 451
3 466 472 452
3 472 460 452
3 481 473 453
3 461 481 453
3 474 466 454
3 462 474 454
3 483 463 455
3 475 483 455
3 476 457 456
3 476 477 457
3 477 469 457
3 480 478 458
3 460 480 458
3 479 461 459
3 471 479 459
3 472 480 460
3 479 481 461
3 483 482 462
3 463 483 462
3 482 474 462
3 470 484 464
3 484 468 464
3 469 471 465
3 474 472 466
3 487 475 467
3 473 487 467
3 484 488 468
3 488 476 468
3 477 485 469
3 485 471 469
3 478 490 470
3 490 484 470
3 485 479 471
3 474 486 472
3 486 480 472
3 493 487 473
3 481 493 473
3 482 486 474
3 487 495 475
3 495 483 475
3 488 477 476
3 488 489 477
3 489 485 477
3 492 490 478
3 480 492 478
3 491 481 479
3 485 491 479
3 486 492 480
3 491 493 481
3 495 494 482
3 483 495 482
3 494 486 482
3 490 496 484
3 496 488 484
3 489 491 485
3 494 492 486
3 503 495 487
3 493 503 487
3 496 489 488
3 496 497 489
3 497 491 489
3 502 496 490
3 492 502 490
3 497 493 491
3 494 502 492
3 497 503 493
3 503 502 494
3 495 503 494
3 498 497 496
3 500 498 496
3 502 500 496
3 498 499 497
3 499 503 497
3 501 503 499
3 502 501 500
3 502 503 501
